<svg xmlns="http://www.w3.org/2000/svg" xmlns:xlink="http://www.w3.org/1999/xlink" contentStyleType="text/css" data-diagram-type="CLASS" height="784px" preserveAspectRatio="none" style="width:865px;height:784px;background:#FFFFFF;" version="1.1" viewBox="0 0 865 784" width="865px" zoomAndPan="magnify"><?plantuml 1.2026.6?><defs/><g><!--cluster AIsra--><g class="cluster" data-qualified-name="AIsra" data-source-line="2" id="ent0001"><path d="M8.5,6.602 L46.3059,6.602 A3.75,3.75 0 0 1 48.8059,9.102 L55.8059,31.6699 L643.5,31.6699 A2.5,2.5 0 0 1 646,34.1699 L646,766.972 A2.5,2.5 0 0 1 643.5,769.472 L8.5,769.472 A2.5,2.5 0 0 1 6,766.972 L6,9.102 A2.5,2.5 0 0 1 8.5,6.602" fill="none" style="stroke:#000000;stroke-width:1.5;"/><line style="stroke:#000000;stroke-width:1.5;" x1="6" x2="55.8059" y1="31.6699" y2="31.6699"/><text fill="#000000" font-family="sans-serif" font-size="14" font-weight="700" lengthAdjust="spacing" textLength="36.8059" x="10" y="23.5679">AIsra</text></g><!--cluster Web--><g class="cluster" data-qualified-name="AIsra.Web" data-source-line="3" id="ent0002"><path d="M139.5,52.602 L171.2439,52.602 A3.75,3.75 0 0 1 173.7439,55.102 L180.7439,77.6699 L618.5,77.6699 A2.5,2.5 0 0 1 621,80.1699 L621,202.632 A2.5,2.5 0 0 1 618.5,205.132 L139.5,205.132 A2.5,2.5 0 0 1 137,202.632 L137,55.102 A2.5,2.5 0 0 1 139.5,52.602" fill="none" style="stroke:#000000;stroke-width:1.5;"/><line style="stroke:#000000;stroke-width:1.5;" x1="137" x2="180.7439" y1="77.6699" y2="77.6699"/><text fill="#000000" font-family="sans-serif" font-size="14" font-weight="700" lengthAdjust="spacing" textLength="30.7439" x="141" y="69.5679">Web</text></g><!--cluster HeuristicLibAdapter--><g class="cluster" data-qualified-name="AIsra.HeuristicLibAdapter" data-source-line="18" id="ent0007"><path d="M32.5,238.132 L173.9475,238.132 A3.75,3.75 0 0 1 176.4475,240.632 L183.4475,263.1999 L619.5,263.1999 A2.5,2.5 0 0 1 622,265.6999 L622,570.902 A2.5,2.5 0 0 1 619.5,573.402 L32.5,573.402 A2.5,2.5 0 0 1 30,570.902 L30,240.632 A2.5,2.5 0 0 1 32.5,238.132" fill="none" style="stroke:#000000;stroke-width:1.5;"/><line style="stroke:#000000;stroke-width:1.5;" x1="30" x2="183.4475" y1="263.1999" y2="263.1999"/><text fill="#000000" font-family="sans-serif" font-size="14" font-weight="700" lengthAdjust="spacing" textLength="140.4475" x="34" y="255.0979">HeuristicLibAdapter</text></g><!--cluster Grpc--><g class="cluster" data-qualified-name="AIsra.HeuristicLibAdapter.Grpc" data-source-line="24" id="ent0010"><path d="M56.5,390.202 L89.9659,390.202 A3.75,3.75 0 0 1 92.4659,392.702 L99.4659,415.2699 L311.5,415.2699 A2.5,2.5 0 0 1 314,417.7699 L314,546.902 A2.5,2.5 0 0 1 311.5,549.402 L56.5,549.402 A2.5,2.5 0 0 1 54,546.902 L54,392.702 A2.5,2.5 0 0 1 56.5,390.202" fill="none" style="stroke:#000000;stroke-width:1.5;"/><line style="stroke:#000000;stroke-width:1.5;" x1="54" x2="99.4659" y1="415.2699" y2="415.2699"/><text fill="#000000" font-family="sans-serif" font-size="14" font-weight="700" lengthAdjust="spacing" textLength="32.4659" x="58" y="407.1679">Grpc</text></g><!--cluster Lib--><g class="cluster" data-qualified-name="AIsra.HeuristicLibAdapter.Lib" data-source-line="31" id="ent0014"><path d="M340.5,390.202 L362.3599,390.202 A3.75,3.75 0 0 1 364.8599,392.702 L371.8599,415.2699 L595.5,415.2699 A2.5,2.5 0 0 1 598,417.7699 L598,546.902 A2.5,2.5 0 0 1 595.5,549.402 L340.5,549.402 A2.5,2.5 0 0 1 338,546.902 L338,392.702 A2.5,2.5 0 0 1 340.5,390.202" fill="none" style="stroke:#000000;stroke-width:1.5;"/><line style="stroke:#000000;stroke-width:1.5;" x1="338" x2="371.8599" y1="415.2699" y2="415.2699"/><text fill="#000000" font-family="sans-serif" font-size="14" font-weight="700" lengthAdjust="spacing" textLength="20.8599" x="342" y="407.1679">Lib</text></g><!--cluster HeuristicLibWeb--><g class="cluster" data-qualified-name="AIsra.HeuristicLibWeb" data-source-line="39" id="ent0018"><path d="M85.5,624.402 L201.2296,624.402 A3.75,3.75 0 0 1 203.7296,626.902 L210.7296,649.4699 L566.5,649.4699 A2.5,2.5 0 0 1 569,651.9699 L569,742.972 A2.5,2.5 0 0 1 566.5,745.472 L85.5,745.472 A2.5,2.5 0 0 1 83,742.972 L83,626.902 A2.5,2.5 0 0 1 85.5,624.402" fill="none" style="stroke:#000000;stroke-width:1.5;"/><line style="stroke:#000000;stroke-width:1.5;" x1="83" x2="210.7296" y1="649.4699" y2="649.4699"/><text fill="#000000" font-family="sans-serif" font-size="14" font-weight="700" lengthAdjust="spacing" textLength="114.7296" x="87" y="641.3679">HeuristicLibWeb</text></g><!--cluster HeuristicLib--><g class="cluster" data-qualified-name="HeuristicLib" data-source-line="48" id="ent0023"><path d="M672.5,418.802 L757.4857,418.802 A3.75,3.75 0 0 1 759.9857,421.302 L766.9857,443.8699 L847.5,443.8699 A2.5,2.5 0 0 1 850,446.3699 L850,518.302 A2.5,2.5 0 0 1 847.5,520.802 L672.5,520.802 A2.5,2.5 0 0 1 670,518.302 L670,421.302 A2.5,2.5 0 0 1 672.5,418.802" fill="none" style="stroke:#000000;stroke-width:1;stroke-dasharray:7,7;"/><line style="stroke:#000000;stroke-width:1;stroke-dasharray:7,7;" x1="670" x2="766.9857" y1="443.8699" y2="443.8699"/><text fill="#000000" font-family="sans-serif" font-size="14" font-weight="700" lengthAdjust="spacing" textLength="83.9857" x="674" y="435.7679">HeuristicLib</text></g><!--class HeuristicTools--><g class="entity" data-qualified-name="AIsra.Web.HeuristicTools" data-source-line="4" id="ent0003"><rect fill="#F1F1F1" height="86.1358" rx="2.5" ry="2.5" style="stroke:#181818;stroke-width:0.5;" width="248.7531" x="152.62" y="96.802"/><ellipse cx="226.0217" cy="112.802" fill="#ADD1B2" rx="11" ry="11" style="stroke:#181818;stroke-width:1;"/><path d="M225.4905,119.7239 Q223.7405,119.7239 222.5998,118.9895 Q221.4748,118.2395 220.9123,116.8957 Q220.3655,115.5364 220.3655,113.7395 Q220.3655,111.7082 221.0217,110.2551 Q221.678,108.802 222.9592,108.0207 Q224.2405,107.2395 226.1155,107.2395 Q227.0061,107.2395 227.678,107.427 Q228.3498,107.5989 229.0373,107.9426 L228.2248,109.9582 Q227.5998,109.6457 227.053,109.5207 Q226.5217,109.3957 226.0373,109.3957 Q224.8655,109.3957 224.1623,109.927 Q223.4592,110.4582 223.1623,111.4114 Q222.8655,112.3645 222.8655,113.6301 Q222.8655,115.6457 223.5842,116.6145 Q224.303,117.5676 225.8967,117.5676 Q226.4905,117.5676 227.1155,117.4114 Q227.7405,117.2551 228.5686,116.8801 L228.5686,119.0989 Q227.8342,119.4114 227.0373,119.5676 Q226.2561,119.7239 225.4905,119.7239 Z " fill="#000000"/><text fill="#000000" font-family="sans-serif" font-size="14" lengthAdjust="spacing" textLength="93.4496" x="246.5217" y="118.234">HeuristicTools</text><line style="stroke:#181818;stroke-width:0.5;" x1="153.62" x2="400.3731" y1="128.802" y2="128.802"/><line style="stroke:#181818;stroke-width:0.5;" x1="153.62" x2="400.3731" y1="136.802" y2="136.802"/><g data-visibility-modifier="PUBLIC_METHOD"><ellipse cx="163.62" cy="151.8359" fill="#84BE84" rx="3" ry="3" style="stroke:#038048;stroke-width:1;"/></g><text fill="#000000" font-family="monospace" font-size="14" lengthAdjust="spacing" textLength="125.9995" x="172.62" y="155.7679">TrainBaseModel(</text><text fill="#000000" font-family="sans-serif" font-size="14" lengthAdjust="spacing" textLength="11.256" x="298.6195" y="155.7679">...</text><text fill="#000000" font-family="monospace" font-size="14" lengthAdjust="spacing" textLength="8.4" x="309.8754" y="155.7679">)</text><text fill="#000000" font-family="sans-serif" font-size="14" lengthAdjust="spacing" textLength="39.8579" x="321.9153" y="155.7679">&#171;tool&#187;</text><g data-visibility-modifier="PUBLIC_METHOD"><ellipse cx="163.62" cy="170.9039" fill="#84BE84" rx="3" ry="3" style="stroke:#038048;stroke-width:1;"/></g><text fill="#000000" font-family="monospace" font-size="14" lengthAdjust="spacing" textLength="159.5993" x="172.62" y="174.8358">TrainResidualModel(</text><text fill="#000000" font-family="sans-serif" font-size="14" lengthAdjust="spacing" textLength="11.256" x="332.2193" y="174.8358">...</text><text fill="#000000" font-family="monospace" font-size="14" lengthAdjust="spacing" textLength="8.4" x="343.4753" y="174.8358">)</text><text fill="#000000" font-family="sans-serif" font-size="14" lengthAdjust="spacing" textLength="39.8579" x="355.5152" y="174.8358">&#171;tool&#187;</text></g><g class="entity" data-qualified-name="AIsra.Web.GMN4" data-source-line="10" id="ent0005"><path d="M436.8,90.602 L436.8,135.872 L401.86,139.872 L436.8,143.872 L436.8,189.1321 A0,0 0 0 0 436.8,189.1321 L605.2071,189.1321 A0,0 0 0 0 605.2071,189.1321 L605.2071,100.602 L595.2071,90.602 L436.8,90.602 A0,0 0 0 0 436.8,90.602" fill="#FEFFDD" style="stroke:#181818;stroke-width:0.5;"/><path d="M595.2071,90.602 L595.2071,100.602 L605.2071,100.602 L595.2071,90.602" fill="#FEFFDD" style="stroke:#181818;stroke-width:0.5;"/><text fill="#000000" font-family="sans-serif" font-size="13" lengthAdjust="spacing" textLength="127.9201" x="442.8" y="109.499">Contains all the tools</text><text fill="#000000" font-family="sans-serif" font-size="13" lengthAdjust="spacing" textLength="112.1251" x="442.8" y="127.205">of the MCP server.</text><text fill="#000000" font-family="sans-serif" font-size="13" lengthAdjust="spacing" textLength="137.2671" x="442.8" y="144.911">Each tools is a method</text><text fill="#000000" font-family="sans-serif" font-size="13" lengthAdjust="spacing" textLength="34.827" x="442.8" y="162.617">in the</text><text fill="#000000" font-family="monospace" font-size="13" lengthAdjust="spacing" textLength="109.2" x="481.007" y="162.617">HeuristicTools</text><text fill="#000000" font-family="sans-serif" font-size="13" lengthAdjust="spacing" textLength="32.825" x="442.8" y="180.3231">class.</text></g><!--class IHeuristicLibClient--><g class="entity" data-qualified-name="AIsra.HeuristicLibAdapter.IHeuristicLibClient" data-source-line="19" id="ent0008"><rect fill="#F1F1F1" height="67.0679" rx="2.5" ry="2.5" style="stroke:#181818;stroke-width:0.5;" width="462.7981" x="45.6" y="276.132"/><ellipse cx="216.4623" cy="292.132" fill="#B4A7E5" rx="11" ry="11" style="stroke:#181818;stroke-width:1;"/><path d="M212.4935,298.632 L212.4935,296.9289 L214.8529,296.6632 L214.8529,288.4601 L212.4935,288.1945 L212.4935,286.4914 L219.6341,286.4914 L219.6341,288.1945 L217.2123,288.4601 L217.2123,296.6632 L219.6341,296.9289 L219.6341,298.632 L212.4935,298.632 Z " fill="#000000"/><text fill="#000000" font-family="sans-serif" font-size="14" font-style="italic" lengthAdjust="spacing" textLength="112.5736" x="236.9623" y="297.564">IHeuristicLibClient</text><line style="stroke:#181818;stroke-width:0.5;" x1="46.6" x2="507.3981" y1="308.132" y2="308.132"/><line style="stroke:#181818;stroke-width:0.5;" x1="46.6" x2="507.3981" y1="316.132" y2="316.132"/><g data-visibility-modifier="PUBLIC_METHOD"><ellipse cx="56.6" cy="331.1659" fill="#84BE84" rx="3" ry="3" style="stroke:#038048;stroke-width:1;"/></g><text fill="#000000" font-family="monospace" font-size="14" font-style="italic" lengthAdjust="spacing" textLength="436.7981" x="65.6" y="335.0979">RunSymRegAsync(request:&#160;SymRegRequest):&#160;Task&lt;string&gt;</text></g><!--class HeuristicLibGrpcClient--><g class="entity" data-qualified-name="AIsra.HeuristicLibAdapter.Grpc.HeuristicLibGrpcClient" data-source-line="25" id="ent0011"><rect fill="#F1F1F1" height="105.2038" rx="2.5" ry="2.5" style="stroke:#181818;stroke-width:0.5;" width="227.5991" x="70.2" y="428.202"/><ellipse cx="107.0951" cy="444.202" fill="#ADD1B2" rx="11" ry="11" style="stroke:#181818;stroke-width:1;"/><path d="M106.5638,451.1239 Q104.8138,451.1239 103.6732,450.3895 Q102.5482,449.6395 101.9857,448.2957 Q101.4388,446.9364 101.4388,445.1395 Q101.4388,443.1082 102.0951,441.6551 Q102.7513,440.202 104.0326,439.4207 Q105.3138,438.6395 107.1888,438.6395 Q108.0794,438.6395 108.7513,438.827 Q109.4232,438.9989 110.1107,439.3426 L109.2982,441.3582 Q108.6732,441.0457 108.1263,440.9207 Q107.5951,440.7957 107.1107,440.7957 Q105.9388,440.7957 105.2357,441.327 Q104.5326,441.8582 104.2357,442.8114 Q103.9388,443.7645 103.9388,445.0301 Q103.9388,447.0457 104.6576,448.0145 Q105.3763,448.9676 106.9701,448.9676 Q107.5638,448.9676 108.1888,448.8114 Q108.8138,448.6551 109.6419,448.2801 L109.6419,450.4989 Q108.9076,450.8114 108.1107,450.9676 Q107.3294,451.1239 106.5638,451.1239 Z " fill="#000000"/><text fill="#000000" font-family="sans-serif" font-size="14" lengthAdjust="spacing" textLength="146.9434" x="125.9606" y="449.634">HeuristicLibGrpcClient</text><line style="stroke:#181818;stroke-width:0.5;" x1="71.2" x2="296.7991" y1="460.202" y2="460.202"/><line style="stroke:#181818;stroke-width:0.5;" x1="71.2" x2="296.7991" y1="468.202" y2="468.202"/><g data-visibility-modifier="PUBLIC_METHOD"><ellipse cx="81.2" cy="502.3039" fill="#84BE84" rx="3" ry="3" style="stroke:#038048;stroke-width:1;"/></g><text fill="#000000" font-family="monospace" font-size="14" lengthAdjust="spacing" textLength="125.9995" x="90.2" y="487.1679">RunSymRegAsync(</text><text fill="#000000" font-family="monospace" font-size="14" lengthAdjust="spacing" textLength="184.7992" x="106.9999" y="506.2358">request:&#160;SymRegRequest</text><text fill="#000000" font-family="monospace" font-size="14" lengthAdjust="spacing" textLength="125.9995" x="90.2" y="525.3038">):&#160;Task&lt;string&gt;</text></g><!--class HeuristicLibClient--><g class="entity" data-qualified-name="AIsra.HeuristicLibAdapter.Lib.HeuristicLibClient" data-source-line="32" id="ent0015"><rect fill="#F1F1F1" height="105.2038" rx="2.5" ry="2.5" style="stroke:#181818;stroke-width:0.5;" width="227.5991" x="354.2" y="428.202"/><ellipse cx="405.9298" cy="444.202" fill="#ADD1B2" rx="11" ry="11" style="stroke:#181818;stroke-width:1;"/><path d="M405.3985,451.1239 Q403.6485,451.1239 402.5079,450.3895 Q401.3829,449.6395 400.8204,448.2957 Q400.2735,446.9364 400.2735,445.1395 Q400.2735,443.1082 400.9298,441.6551 Q401.586,440.202 402.8673,439.4207 Q404.1485,438.6395 406.0235,438.6395 Q406.9142,438.6395 407.586,438.827 Q408.2579,438.9989 408.9454,439.3426 L408.1329,441.3582 Q407.5079,441.0457 406.961,440.9207 Q406.4298,440.7957 405.9454,440.7957 Q404.7735,440.7957 404.0704,441.327 Q403.3673,441.8582 403.0704,442.8114 Q402.7735,443.7645 402.7735,445.0301 Q402.7735,447.0457 403.4923,448.0145 Q404.211,448.9676 405.8048,448.9676 Q406.3985,448.9676 407.0235,448.8114 Q407.6485,448.6551 408.4767,448.2801 L408.4767,450.4989 Q407.7423,450.8114 406.9454,450.9676 Q406.1642,451.1239 405.3985,451.1239 Z " fill="#000000"/><text fill="#000000" font-family="sans-serif" font-size="14" lengthAdjust="spacing" textLength="115.6395" x="426.4298" y="449.634">HeuristicLibClient</text><line style="stroke:#181818;stroke-width:0.5;" x1="355.2" x2="580.7991" y1="460.202" y2="460.202"/><line style="stroke:#181818;stroke-width:0.5;" x1="355.2" x2="580.7991" y1="468.202" y2="468.202"/><g data-visibility-modifier="PUBLIC_METHOD"><ellipse cx="365.2" cy="502.3039" fill="#84BE84" rx="3" ry="3" style="stroke:#038048;stroke-width:1;"/></g><text fill="#000000" font-family="monospace" font-size="14" lengthAdjust="spacing" textLength="125.9995" x="374.2" y="487.1679">RunSymRegAsync(</text><text fill="#000000" font-family="monospace" font-size="14" lengthAdjust="spacing" textLength="184.7992" x="390.9999" y="506.2358">request:&#160;SymRegRequest</text><text fill="#000000" font-family="monospace" font-size="14" lengthAdjust="spacing" textLength="125.9995" x="374.2" y="525.3038">):&#160;Task&lt;string&gt;</text></g><!--class HeuristicService--><g class="entity" data-qualified-name="AIsra.HeuristicLibWeb.HeuristicService" data-source-line="40" id="ent0019"><rect fill="#F1F1F1" height="67.0679" rx="2.5" ry="2.5" style="stroke:#181818;stroke-width:0.5;" width="454.3981" x="98.8" y="662.402"/><ellipse cx="269.1933" cy="678.402" fill="#ADD1B2" rx="11" ry="11" style="stroke:#181818;stroke-width:1;"/><path d="M268.662,685.3239 Q266.912,685.3239 265.7714,684.5895 Q264.6464,683.8395 264.0839,682.4957 Q263.537,681.1364 263.537,679.3395 Q263.537,677.3082 264.1933,675.8551 Q264.8495,674.402 266.1308,673.6207 Q267.412,672.8395 269.287,672.8395 Q270.1776,672.8395 270.8495,673.027 Q271.5214,673.1989 272.2089,673.5426 L271.3964,675.5582 Q270.7714,675.2457 270.2245,675.1207 Q269.6933,674.9957 269.2089,674.9957 Q268.037,674.9957 267.3339,675.527 Q266.6308,676.0582 266.3339,677.0114 Q266.037,677.9645 266.037,679.2301 Q266.037,681.2457 266.7558,682.2145 Q267.4745,683.1676 269.0683,683.1676 Q269.662,683.1676 270.287,683.0114 Q270.912,682.8551 271.7401,682.4801 L271.7401,684.6989 Q271.0058,685.0114 270.2089,685.1676 Q269.4276,685.3239 268.662,685.3239 Z " fill="#000000"/><text fill="#000000" font-family="sans-serif" font-size="14" lengthAdjust="spacing" textLength="105.1116" x="289.6933" y="683.834">HeuristicService</text><line style="stroke:#181818;stroke-width:0.5;" x1="99.8" x2="552.1981" y1="694.402" y2="694.402"/><line style="stroke:#181818;stroke-width:0.5;" x1="99.8" x2="552.1981" y1="702.402" y2="702.402"/><g data-visibility-modifier="PUBLIC_METHOD"><ellipse cx="109.8" cy="717.4359" fill="#84BE84" rx="3" ry="3" style="stroke:#038048;stroke-width:1;"/></g><text fill="#000000" font-family="monospace" font-size="14" lengthAdjust="spacing" textLength="428.3981" x="118.8" y="721.3679">Fit(request:&#160;GrpcSymbolicRegressionHyperparameters)</text></g><!--class GeneticAlgorithm--><g class="entity" data-qualified-name="HeuristicLib.GeneticAlgorithm" data-source-line="49" id="ent0024"><rect fill="#F1F1F1" height="48" rx="2.5" ry="2.5" style="stroke:#181818;stroke-width:1;stroke-dasharray:7,7;" width="147.8495" x="686.08" y="456.802"/><ellipse cx="701.08" cy="472.802" fill="#ADD1B2" rx="11" ry="11" style="stroke:#181818;stroke-width:1;"/><path d="M700.5488,479.7239 Q698.7988,479.7239 697.6581,478.9895 Q696.5331,478.2395 695.9706,476.8957 Q695.4238,475.5364 695.4238,473.7395 Q695.4238,471.7082 696.08,470.2551 Q696.7363,468.802 698.0175,468.0207 Q699.2988,467.2395 701.1738,467.2395 Q702.0644,467.2395 702.7363,467.427 Q703.4081,467.5989 704.0956,467.9426 L703.2831,469.9582 Q702.6581,469.6457 702.1113,469.5207 Q701.58,469.3957 701.0956,469.3957 Q699.9238,469.3957 699.2206,469.927 Q698.5175,470.4582 698.2206,471.4114 Q697.9238,472.3645 697.9238,473.6301 Q697.9238,475.6457 698.6425,476.6145 Q699.3613,477.5676 700.955,477.5676 Q701.5488,477.5676 702.1738,477.4114 Q702.7988,477.2551 703.6269,476.8801 L703.6269,479.0989 Q702.8925,479.4114 702.0956,479.5676 Q701.3144,479.7239 700.5488,479.7239 Z " fill="#000000"/><text fill="#000000" font-family="sans-serif" font-size="14" lengthAdjust="spacing" textLength="115.8495" x="715.08" y="478.234">GeneticAlgorithm</text><line style="stroke:#181818;stroke-width:1;stroke-dasharray:7,7;" x1="687.08" x2="832.9295" y1="488.802" y2="488.802"/><line style="stroke:#181818;stroke-width:1;stroke-dasharray:7,7;" x1="687.08" x2="832.9295" y1="496.802" y2="496.802"/></g><!--reverse link HeuristicTools to IHeuristicLibClient--><g class="link" data-entity-1="ent0003" data-entity-2="ent0008" data-link-type="aggregation" data-source-line="22" id="lnk9"><path codeLine="22" d="M277,195.212 C277,223.952 277,249.392 277,275.862" fill="none" id="HeuristicTools-backto-IHeuristicLibClient" style="stroke:#181818;stroke-width:1;"/><polygon fill="none" points="277,183.212,273,189.212,277,195.212,281,189.212,277,183.212" style="stroke:#181818;stroke-width:1;stroke-linejoin:miter;stroke-miterlimit:10;"/></g><!--reverse link IHeuristicLibClient to HeuristicLibGrpcClient--><g class="link" data-entity-1="ent0008" data-entity-2="ent0011" data-link-type="extension" data-source-line="28" id="lnk13"><path codeLine="28" d="M250.1762,359.4543 C237.0162,383.3843 227.62,400.462 212.54,427.902" fill="none" id="IHeuristicLibClient-backto-HeuristicLibGrpcClient" style="stroke:#181818;stroke-width:1;stroke-dasharray:7,7;"/><polygon fill="none" points="258.85,343.682,244.9188,356.563,255.4337,362.3455,258.85,343.682" style="stroke:#181818;stroke-width:1;stroke-linejoin:miter;stroke-miterlimit:10;"/></g><!--reverse link IHeuristicLibClient to HeuristicLibClient--><g class="link" data-entity-1="ent0008" data-entity-2="ent0015" data-link-type="extension" data-source-line="35" id="lnk17"><path codeLine="35" d="M327.7573,355.6136 C354.7873,379.5436 378.41,400.462 409.39,427.902" fill="none" id="IHeuristicLibClient-backto-HeuristicLibClient" style="stroke:#181818;stroke-width:1;stroke-dasharray:7,7;"/><polygon fill="none" points="314.28,343.682,323.7801,360.106,331.7345,351.1212,314.28,343.682" style="stroke:#181818;stroke-width:1;stroke-linejoin:miter;stroke-miterlimit:10;"/></g><!--link HeuristicLibClient to HeuristicService--><g class="link" data-entity-1="ent0015" data-entity-2="ent0019" data-link-type="aggregation" data-source-line="43" id="lnk21"><path codeLine="43" d="M433.44,533.672 C406.76,573.712 377.313,617.9151 354.503,652.1551" fill="none" id="HeuristicLibClient-to-HeuristicService" style="stroke:#181818;stroke-width:1;"/><polygon fill="none" points="347.85,662.142,354.5055,659.3662,354.503,652.1551,347.8476,654.9309,347.85,662.142" style="stroke:#181818;stroke-width:1;stroke-linejoin:miter;stroke-miterlimit:10;"/></g><!--link HeuristicLibGrpcClient to HeuristicService--><g class="link" data-entity-1="ent0011" data-entity-2="ent0019" data-link-type="dependency" data-source-line="44" id="lnk22"><path codeLine="44" d="M218.56,533.672 C245.24,573.712 278.5679,623.7408 301.3779,657.9808" fill="none" id="HeuristicLibGrpcClient-to-HeuristicService" style="stroke:#181818;stroke-width:1;stroke-dasharray:7,7;"/><polygon fill="#181818" points="304.15,662.142,302.4892,652.4342,301.3779,657.9808,295.8313,656.8695,304.15,662.142" style="stroke:#181818;stroke-width:1;stroke-linejoin:miter;stroke-miterlimit:10;"/><text fill="#000000" font-family="sans-serif" font-size="13" lengthAdjust="spacing" textLength="32.162" x="268.72" y="604.299">gRPC</text></g><!--link HeuristicLibClient to GeneticAlgorithm--><g class="link" data-entity-1="ent0015" data-entity-2="ent0024" data-link-type="dependency" data-source-line="52" id="lnk25"><path codeLine="52" d="M582.06,480.802 C616.58,480.802 646.11,480.802 680.63,480.802" fill="none" id="HeuristicLibClient-to-GeneticAlgorithm" style="stroke:#181818;stroke-width:1;"/><polygon fill="#181818" points="685.63,480.802,676.63,476.802,680.63,480.802,676.63,484.802,685.63,480.802" style="stroke:#181818;stroke-width:1;stroke-linejoin:miter;stroke-miterlimit:10;"/></g><?plantuml-src pPHBJyCm3CVl-nIMkJ2XzWDCKwKnyP90GcKI5ovPQjg8B2b9YZJ1lZlfkaVJTPkuaLCUjkEV_KzAnZzOJZ1vi8R1zm3yA3TxhpJVxDI3IsOjt5DbX7M2pxIMjdLSZoj0d1acr3MpzAGpafU8SHmZ3X5XF7RU9qdwNLAo8gkOFE-s6kocIZi28_B2WNxlv1PSCzNA-KiiC2d15GJkmCG7g0-UfizWoNoHYOFZ6yQBnWk43mCBSeNE0XEXrX4GmqGG0wjr7VUnIMLhZ44BRTk0NPn7CPzah7HaMXKNog_V6ITuQ1jEfI3bEftvPdFh3EDk1LU8QQLUbekKyebTAdvfwBCYwqRGRARDSZY26RCVO-ydL9wqA5QxMKSDEigYlcJs3TkItPcITrBiwCixrqQzD6lX760WlYcl5-Z7QKwFGuLW0LoOIbp5FqalPOz0jxpUw2pkFq7z0-OPoPxyFrxy6nDUkvqV1F5MkBqYwxfxjhcMWdj0GzOAhUwN9PcI6UOV8HaxFAtDxKqwgY8umNEitybXg17awVDqm-yhq4SF5r8eYZDc2yesc4qDxaYHjvd8N1lXYaLWMOVhQKTaekJ0SV0B?></g></svg>