<?plantuml 1.2026.2?><svg xmlns="http://www.w3.org/2000/svg" xmlns:xlink="http://www.w3.org/1999/xlink" contentStyleType="text/css" data-diagram-type="DESCRIPTION" height="1049px" preserveAspectRatio="none" style="width:1033px;height:1049px;background:#FFFFFF;" version="1.1" viewBox="0 0 1033 1049" width="1033px" zoomAndPan="magnify"><defs/><g><!--cluster heuristic-agent-frontend--><g class="cluster" data-qualified-name="heuristic-agent-frontend" data-source-line="4" id="ent0003"><path d="M552.5,6 L715.2793,6 A3.75,3.75 0 0 1 717.7793,8.5 L724.7793,29.1514 L724.5,29.1514 A2.5,2.5 0 0 1 727,31.6514 L727,102.5 A2.5,2.5 0 0 1 724.5,105 L552.5,105 A2.5,2.5 0 0 1 550,102.5 L550,8.5 A2.5,2.5 0 0 1 552.5,6" fill="none" style="stroke:#000000;stroke-width:1.5;"/><line style="stroke:#000000;stroke-width:1.5;" x1="550" x2="724.7793" y1="29.1514" y2="29.1514"/><text fill="#000000" font-family="sans-serif" font-size="14" font-weight="bold" lengthAdjust="spacing" textLength="161.7793" x="554" y="22.0752">heuristic-agent-frontend</text></g><!--cluster HeuristicAgent--><g class="cluster" data-qualified-name="HeuristicAgent" data-source-line="10" id="ent0006"><path d="M267.5,129 L368.0723,129 A3.75,3.75 0 0 1 370.5723,131.5 L377.5723,152.1514 L792.5,152.1514 A2.5,2.5 0 0 1 795,154.6514 L795,466.5 A2.5,2.5 0 0 1 792.5,469 L267.5,469 A2.5,2.5 0 0 1 265,466.5 L265,131.5 A2.5,2.5 0 0 1 267.5,129" fill="none" style="stroke:#000000;stroke-width:1.5;"/><line style="stroke:#000000;stroke-width:1.5;" x1="265" x2="377.5723" y1="152.1514" y2="152.1514"/><text fill="#000000" font-family="sans-serif" font-size="14" font-weight="bold" lengthAdjust="spacing" textLength="99.5723" x="269" y="145.0752">HeuristicAgent</text></g><g class="cluster" data-qualified-name="..49" data-source-line="66" id="ent0050"><path d="M835.9627,157.741 C838.7281,151.2767 845.1221,151.4669 848.868,156.6551 C852.9803,148.7852 858.1706,148.2109 863.2109,155.7938 C866.154,148.9156 871.2577,146.56 876.8993,153.0257 C880.8173,144.7678 887.8792,144.4615 892.3678,152.4837 C895.4438,144.934 900.4719,144.627 905.3336,150.7961 C909.7288,142.3484 915.6907,143.1097 921.5424,149.1687 C925.4973,144.6864 931.5511,145.4003 933.8865,151.1269 C939.739,144.177 944.817,144.5044 950.2174,151.6506 C954.9637,145.3932 960.9111,146.4469 964.4041,153.0348 C969.727,146.4909 975.4704,147.9761 977.7685,155.8404 C982.3349,149.8967 989.0228,149.0607 992.7406,156.771 C1001.5308,149.3172 1010.1126,153.0632 1012,164 C1013.8078,163.824 1014.662,164.676 1014.4133,166.4918 C1020.5817,170.2767 1021.1115,174.4588 1015.4127,179.1787 C1020.9257,183.6335 1021.4043,189.1527 1014.5392,192.8146 C1022.4591,196.5308 1023.1493,203.8309 1015.7799,208.7384 C1022.3085,211.6427 1021.7047,217.2929 1016.1625,220.587 C1023.1416,223.6768 1024.088,229.9467 1018.5675,235.1068 C1026.6744,239.3088 1025.582,246.1213 1019.1964,250.9004 C1025.1079,254.6624 1024.4469,260.4682 1018.7755,263.8538 C1026.4141,269.6254 1025.809,274.1933 1017.5952,278.7051 C1024.3892,283.1806 1025.1394,288.7597 1017.3921,293.0289 C1022.6925,298.1601 1023.3943,303.0031 1015.6793,306.4764 C1020.7661,310.9123 1020.1803,317.6076 1013.1527,319.7348 C1020.2728,328.7742 1016.0573,338.5973 1005,340.5 C1005.87,340.9114 1006.1969,341.4896 1005.3621,342.2531 C1001.2833,349.3723 996.6474,349.3639 990.9671,344.1173 C988.1494,350.4538 982.466,351.0409 977.9716,346.039 C973.1311,351.8847 968.7813,354.0088 963.6895,346.304 C960.6737,354.4087 954.3693,354.8209 948.6215,349.3323 C944.86,355.1309 938.7937,356.557 934.8964,349.477 C930.6112,356.0763 926.1634,356.9991 920.3899,351.2213 C915.3176,358.1529 910.8902,357.1601 906.7406,350.3077 C901.7098,358.1006 896.2342,356.9855 891.8251,349.6931 C886.2915,356.3762 879.0056,354.0215 876.9005,346.1721 C871.719,351.2608 867.9221,351.5584 864.72,344.2304 C859.5727,350.0584 852.7161,351.1973 849.3248,342.3839 C837.1958,350.9821 830.523,346.5285 827,333.5 C828.6353,333.578 829.2496,334.3376 828.7163,335.9406 C820.6551,331.806 820.443,326.9655 827.7359,321.7687 C820.8476,318.2928 820.6193,311.7313 826.777,307.3856 C819.5264,303.3233 817.8203,296.397 825.4702,291.1363 C819.9419,288.6118 818.4254,283.2321 823.3827,278.9163 C817.2767,274.1322 816.3768,268.267 823.6679,263.7345 C816.3981,259.8437 815.7239,254.2537 822.8409,249.5256 C817.473,244.8684 816.9121,239.3469 824.0488,235.7893 C817.1879,231.3005 818.5449,224.6832 825.1971,221.2626 C819.0987,218.1146 817.3744,212.483 824.1186,208.269 C818.6129,203.1396 819.2231,196.2138 827.0291,193.7536 C821.6273,188.49 820.9022,183.9234 828.0042,179.5162 C820.1648,169.0557 820.3094,161.7273 834,157 C834.9762,156.375 835.6562,156.5919 835.9627,157.741" fill="none" style="stroke:#181818;stroke-width:1;"/></g><!--cluster HeuristicLibAdapter--><g class="cluster" data-qualified-name="HeuristicLibAdapter" data-source-line="77" id="ent0058"><path d="M220.5,493 L355.2998,493 A3.75,3.75 0 0 1 357.7998,495.5 L364.7998,516.1514 L859.5,516.1514 A2.5,2.5 0 0 1 862,518.6514 L862,709.5 A2.5,2.5 0 0 1 859.5,712 L220.5,712 A2.5,2.5 0 0 1 218,709.5 L218,495.5 A2.5,2.5 0 0 1 220.5,493" fill="none" style="stroke:#000000;stroke-width:1.5;"/><line style="stroke:#000000;stroke-width:1.5;" x1="218" x2="364.7998" y1="516.1514" y2="516.1514"/><text fill="#000000" font-family="sans-serif" font-size="14" font-weight="bold" lengthAdjust="spacing" textLength="133.7998" x="222" y="509.0752">HeuristicLibAdapter</text></g><!--cluster HeuristicWeb--><g class="cluster" data-qualified-name="HeuristicWeb" data-source-line="90" id="ent0067"><path d="M350.5,736 L440.9619,736 A3.75,3.75 0 0 1 443.4619,738.5 L450.4619,759.1514 L905.5,759.1514 A2.5,2.5 0 0 1 908,761.6514 L908,832.5 A2.5,2.5 0 0 1 905.5,835 L350.5,835 A2.5,2.5 0 0 1 348,832.5 L348,738.5 A2.5,2.5 0 0 1 350.5,736" fill="none" style="stroke:#000000;stroke-width:1.5;"/><line style="stroke:#000000;stroke-width:1.5;" x1="348" x2="450.4619" y1="759.1514" y2="759.1514"/><text fill="#000000" font-family="sans-serif" font-size="14" font-weight="bold" lengthAdjust="spacing" textLength="89.4619" x="352" y="752.0752">HeuristicWeb</text></g><!--cluster HeuristicLibWrapper--><g class="cluster" data-qualified-name="HeuristicLibWrapper" data-source-line="102" id="ent0077"><path d="M383.5,859 L522.1895,859 A3.75,3.75 0 0 1 524.6895,861.5 L531.6895,882.1514 L632.5,882.1514 A2.5,2.5 0 0 1 635,884.6514 L635,955.5 A2.5,2.5 0 0 1 632.5,958 L383.5,958 A2.5,2.5 0 0 1 381,955.5 L381,861.5 A2.5,2.5 0 0 1 383.5,859" fill="none" style="stroke:#000000;stroke-width:1.5;"/><line style="stroke:#000000;stroke-width:1.5;" x1="381" x2="531.6895" y1="882.1514" y2="882.1514"/><text fill="#000000" font-family="sans-serif" font-size="14" font-weight="bold" lengthAdjust="spacing" textLength="137.6895" x="385" y="875.0752">HeuristicLibWrapper</text></g><!--entity webClient--><g class="entity" data-qualified-name="heuristic-agent-frontend.webClient" data-source-line="5" id="ent0004"><rect fill="#F1F1F1" height="47.1514" rx="2.5" ry="2.5" style="stroke:#181818;stroke-width:0.5;" width="108.4688" x="567" y="42"/><rect fill="#F1F1F1" height="10" style="stroke:#181818;stroke-width:0.5;" width="15" x="655.4688" y="47"/><rect fill="#F1F1F1" height="2" style="stroke:#181818;stroke-width:0.5;" width="4" x="653.4688" y="49"/><rect fill="#F1F1F1" height="2" style="stroke:#181818;stroke-width:0.5;" width="4" x="653.4688" y="53"/><text fill="#000000" font-family="sans-serif" font-size="14" lengthAdjust="spacing" textLength="68.4688" x="582" y="76.0752">Web Client</text></g><!--entity agentApi--><g class="entity" data-qualified-name="HeuristicAgent.agentApi" data-source-line="12" id="ent0007"><ellipse cx="621" cy="188.5" fill="#F1F1F1" rx="8" ry="8" style="stroke:#181818;stroke-width:0.5;"/><text fill="#000000" font-family="sans-serif" font-size="14" lengthAdjust="spacing" textLength="36.5518" x="602.7241" y="219.5752">HTTP</text></g><!--entity agentServer--><g class="entity" data-qualified-name="HeuristicAgent.agentServer" data-source-line="13" id="ent0008"><rect fill="#F1F1F1" height="47.1514" rx="2.5" ry="2.5" style="stroke:#181818;stroke-width:0.5;" width="113.9102" x="665" y="165"/><rect fill="#F1F1F1" height="10" style="stroke:#181818;stroke-width:0.5;" width="15" x="758.9102" y="170"/><rect fill="#F1F1F1" height="2" style="stroke:#181818;stroke-width:0.5;" width="4" x="756.9102" y="172"/><rect fill="#F1F1F1" height="2" style="stroke:#181818;stroke-width:0.5;" width="4" x="756.9102" y="176"/><text fill="#000000" font-family="sans-serif" font-size="14" lengthAdjust="spacing" textLength="73.9102" x="680" y="199.0752">Web Server</text></g><!--entity chatClient--><g class="entity" data-qualified-name="HeuristicAgent.chatClient" data-source-line="14" id="ent0009"><rect fill="#F1F1F1" height="47.1514" rx="2.5" ry="2.5" style="stroke:#181818;stroke-width:0.5;" width="109.2549" x="667.5" y="285.5"/><rect fill="#F1F1F1" height="10" style="stroke:#181818;stroke-width:0.5;" width="15" x="756.7549" y="290.5"/><rect fill="#F1F1F1" height="2" style="stroke:#181818;stroke-width:0.5;" width="4" x="754.7549" y="292.5"/><rect fill="#F1F1F1" height="2" style="stroke:#181818;stroke-width:0.5;" width="4" x="754.7549" y="296.5"/><text fill="#000000" font-family="sans-serif" font-size="14" lengthAdjust="spacing" textLength="69.2549" x="682.5" y="319.5752">Chat Client</text></g><!--entity mcpClient--><g class="entity" data-qualified-name="HeuristicAgent.mcpClient" data-source-line="15" id="ent0010"><rect fill="#F1F1F1" height="47.1514" rx="2.5" ry="2.5" style="stroke:#181818;stroke-width:0.5;" width="110.793" x="666.5" y="406"/><rect fill="#F1F1F1" height="10" style="stroke:#181818;stroke-width:0.5;" width="15" x="757.293" y="411"/><rect fill="#F1F1F1" height="2" style="stroke:#181818;stroke-width:0.5;" width="4" x="755.293" y="413"/><rect fill="#F1F1F1" height="2" style="stroke:#181818;stroke-width:0.5;" width="4" x="755.293" y="417"/><text fill="#000000" font-family="sans-serif" font-size="14" lengthAdjust="spacing" textLength="70.793" x="681.5" y="440.0752">MCP Client</text></g><!--entity mqttClient--><g class="entity" data-qualified-name="HeuristicAgent.mqttClient" data-source-line="16" id="ent0011"><rect fill="#F1F1F1" height="47.1514" rx="2.5" ry="2.5" style="stroke:#181818;stroke-width:0.5;" width="119.3379" x="281.5" y="165"/><rect fill="#F1F1F1" height="10" style="stroke:#181818;stroke-width:0.5;" width="15" x="380.8379" y="170"/><rect fill="#F1F1F1" height="2" style="stroke:#181818;stroke-width:0.5;" width="4" x="378.8379" y="172"/><rect fill="#F1F1F1" height="2" style="stroke:#181818;stroke-width:0.5;" width="4" x="378.8379" y="176"/><text fill="#000000" font-family="sans-serif" font-size="14" lengthAdjust="spacing" textLength="79.3379" x="296.5" y="199.0752">MQTT Client</text></g><!--entity eval--><g class="entity" data-qualified-name="HeuristicAgent.eval" data-source-line="17" id="ent0012"><rect fill="#F1F1F1" height="47.1514" rx="2.5" ry="2.5" style="stroke:#181818;stroke-width:0.5;" width="141.165" x="435.5" y="165"/><rect fill="#F1F1F1" height="10" style="stroke:#181818;stroke-width:0.5;" width="15" x="556.665" y="170"/><rect fill="#F1F1F1" height="2" style="stroke:#181818;stroke-width:0.5;" width="4" x="554.665" y="172"/><rect fill="#F1F1F1" height="2" style="stroke:#181818;stroke-width:0.5;" width="4" x="554.665" y="176"/><text fill="#000000" font-family="sans-serif" font-size="14" lengthAdjust="spacing" textLength="101.165" x="450.5" y="199.0752">Model Evaluator</text></g><!--entity redisClient--><g class="entity" data-qualified-name="HeuristicAgent.redisClient" data-source-line="20" id="ent0013"><rect fill="#F1F1F1" height="47.1514" rx="2.5" ry="2.5" style="stroke:#181818;stroke-width:0.5;" width="115.4756" x="284.5" y="285.5"/><rect fill="#F1F1F1" height="10" style="stroke:#181818;stroke-width:0.5;" width="15" x="379.9756" y="290.5"/><rect fill="#F1F1F1" height="2" style="stroke:#181818;stroke-width:0.5;" width="4" x="377.9756" y="292.5"/><rect fill="#F1F1F1" height="2" style="stroke:#181818;stroke-width:0.5;" width="4" x="377.9756" y="296.5"/><text fill="#000000" font-family="sans-serif" font-size="14" lengthAdjust="spacing" textLength="75.4756" x="299.5" y="319.5752">Redis Client</text></g><!--entity mcpServer--><g class="entity" data-qualified-name="HeuristicAgent.mcpServer" data-source-line="21" id="ent0014"><rect fill="#F1F1F1" height="47.1514" rx="2.5" ry="2.5" style="stroke:#181818;stroke-width:0.5;" width="116.2344" x="462" y="406"/><rect fill="#F1F1F1" height="10" style="stroke:#181818;stroke-width:0.5;" width="15" x="558.2344" y="411"/><rect fill="#F1F1F1" height="2" style="stroke:#181818;stroke-width:0.5;" width="4" x="556.2344" y="413"/><rect fill="#F1F1F1" height="2" style="stroke:#181818;stroke-width:0.5;" width="4" x="556.2344" y="417"/><text fill="#000000" font-family="sans-serif" font-size="14" lengthAdjust="spacing" textLength="76.2344" x="477" y="440.0752">MCP Server</text></g><!--entity mcp--><g class="entity" data-qualified-name="HeuristicAgent.mcp" data-source-line="22" id="ent0015"><ellipse cx="622" cy="429.5" fill="#F1F1F1" rx="8" ry="8" style="stroke:#181818;stroke-width:0.5;"/><text fill="#000000" font-family="sans-serif" font-size="14" lengthAdjust="spacing" textLength="31.1104" x="606.4448" y="460.5752">MCP</text></g><g class="entity" data-qualified-name="HeuristicAgent.GMN29" data-source-line="38" id="ent0030"><path d="M435,272 L435,345.7051 A0,0 0 0 0 435,345.7051 L523.2217,345.7051 A0,0 0 0 0 523.2217,345.7051 L523.2217,282 L513.2217,272 L491.31,272 L500.86,212.07 L483.31,272 L435,272 A0,0 0 0 0 435,272" fill="#FEFFDD" style="stroke:#181818;stroke-width:0.5;"/><path d="M513.2217,272 L513.2217,282 L523.2217,282 L513.2217,272" fill="#FEFFDD" style="stroke:#181818;stroke-width:0.5;"/><text fill="#000000" font-family="sans-serif" font-size="13" lengthAdjust="spacing" textLength="65.0317" x="441" y="290.0698">Notifies the</text><text fill="#000000" font-family="sans-serif" font-size="13" lengthAdjust="spacing" textLength="67.2217" x="441" y="305.9961">agent when</text><text fill="#000000" font-family="sans-serif" font-size="13" lengthAdjust="spacing" textLength="59.2617" x="441" y="321.9224">the quality</text><text fill="#000000" font-family="sans-serif" font-size="13" lengthAdjust="spacing" textLength="32.519" x="441" y="337.8486">drops</text></g><!--entity openRouter--><g class="entity" data-qualified-name="..49.openRouter" data-source-line="67" id="ent0051"><rect fill="#F1F1F1" height="47.1514" rx="2.5" ry="2.5" style="stroke:#181818;stroke-width:1;stroke-dasharray:7,7;" width="116.2686" x="888" y="285.5"/><rect fill="#F1F1F1" height="10" style="stroke:#181818;stroke-width:1;stroke-dasharray:7,7;" width="15" x="984.2686" y="290.5"/><rect fill="#F1F1F1" height="2" style="stroke:#181818;stroke-width:1;stroke-dasharray:7,7;" width="4" x="982.2686" y="292.5"/><rect fill="#F1F1F1" height="2" style="stroke:#181818;stroke-width:1;stroke-dasharray:7,7;" width="4" x="982.2686" y="296.5"/><text fill="#000000" font-family="sans-serif" font-size="14" lengthAdjust="spacing" textLength="76.2686" x="903" y="319.5752">OpenRouter</text></g><!--entity llm--><g class="entity" data-qualified-name="..49.llm" data-source-line="68" id="ent0052"><rect fill="#F1F1F1" height="47.1514" rx="2.5" ry="2.5" style="stroke:#181818;stroke-width:1;stroke-dasharray:7,7;" width="67.2344" x="912.5" y="165"/><rect fill="#F1F1F1" height="10" style="stroke:#181818;stroke-width:1;stroke-dasharray:7,7;" width="15" x="959.7344" y="170"/><rect fill="#F1F1F1" height="2" style="stroke:#181818;stroke-width:1;stroke-dasharray:7,7;" width="4" x="957.7344" y="172"/><rect fill="#F1F1F1" height="2" style="stroke:#181818;stroke-width:1;stroke-dasharray:7,7;" width="4" x="957.7344" y="176"/><text fill="#000000" font-family="sans-serif" font-size="14" lengthAdjust="spacing" textLength="27.2344" x="927.5" y="199.0752">LLM</text></g><!--entity openRouterApi--><g class="entity" data-qualified-name="..49.openRouterApi" data-source-line="69" id="ent0053"><ellipse cx="844" cy="309" fill="#F1F1F1" rx="8" ry="8" style="stroke:#181818;stroke-width:0.5;"/><text fill="#000000" font-family="sans-serif" font-size="14" lengthAdjust="spacing" textLength="36.5518" x="825.7241" y="340.0752">HTTP</text></g><!--entity adapter--><g class="entity" data-qualified-name="HeuristicLibAdapter.adapter" data-source-line="78" id="ent0059"><ellipse cx="520" cy="559" fill="#F1F1F1" rx="8" ry="8" style="stroke:#181818;stroke-width:0.5;"/><text fill="#000000" font-family="sans-serif" font-size="14" lengthAdjust="spacing" textLength="126.0615" x="456.9692" y="590.0752">HeuristicLib Adapter</text></g><!--entity libClient--><g class="entity" data-qualified-name="HeuristicLibAdapter.libClient" data-source-line="79" id="ent0060"><rect fill="#F1F1F1" height="47.1514" rx="2.5" ry="2.5" style="stroke:#181818;stroke-width:0.5;" width="152.8203" x="234.5" y="649"/><rect fill="#F1F1F1" height="10" style="stroke:#181818;stroke-width:0.5;" width="15" x="367.3203" y="654"/><rect fill="#F1F1F1" height="2" style="stroke:#181818;stroke-width:0.5;" width="4" x="365.3203" y="656"/><rect fill="#F1F1F1" height="2" style="stroke:#181818;stroke-width:0.5;" width="4" x="365.3203" y="660"/><text fill="#000000" font-family="sans-serif" font-size="14" lengthAdjust="spacing" textLength="112.8203" x="249.5" y="683.0752">HeuristicLib Client</text></g><!--entity grpcClient--><g class="entity" data-qualified-name="HeuristicLibAdapter.grpcClient" data-source-line="80" id="ent0061"><rect fill="#F1F1F1" height="47.1514" rx="2.5" ry="2.5" style="stroke:#181818;stroke-width:0.5;" width="194.0547" x="652" y="649"/><rect fill="#F1F1F1" height="10" style="stroke:#181818;stroke-width:0.5;" width="15" x="826.0547" y="654"/><rect fill="#F1F1F1" height="2" style="stroke:#181818;stroke-width:0.5;" width="4" x="824.0547" y="656"/><rect fill="#F1F1F1" height="2" style="stroke:#181818;stroke-width:0.5;" width="4" x="824.0547" y="660"/><text fill="#000000" font-family="sans-serif" font-size="14" lengthAdjust="spacing" textLength="154.0547" x="667" y="683.0752">HeuristicLib gRPC Client</text></g><!--entity restClient--><g class="entity" data-qualified-name="HeuristicLibAdapter.restClient" data-source-line="81" id="ent0062"><rect fill="#F1F1F1" height="47.1514" rx="2.5" ry="2.5" style="stroke:#181818;stroke-width:0.5;" width="194.0479" x="423" y="649"/><rect fill="#F1F1F1" height="10" style="stroke:#181818;stroke-width:0.5;" width="15" x="597.0479" y="654"/><rect fill="#F1F1F1" height="2" style="stroke:#181818;stroke-width:0.5;" width="4" x="595.0479" y="656"/><rect fill="#F1F1F1" height="2" style="stroke:#181818;stroke-width:0.5;" width="4" x="595.0479" y="660"/><text fill="#000000" font-family="sans-serif" font-size="14" lengthAdjust="spacing" textLength="154.0479" x="438" y="683.0752">HeuristicLib REST Client</text></g><!--entity restApi--><g class="entity" data-qualified-name="HeuristicWeb.restApi" data-source-line="91" id="ent0068"><rect fill="#F1F1F1" height="47.1514" rx="2.5" ry="2.5" style="stroke:#181818;stroke-width:0.5;" width="180.8203" x="417.5" y="772"/><rect fill="#F1F1F1" height="10" style="stroke:#181818;stroke-width:0.5;" width="15" x="578.3203" y="777"/><rect fill="#F1F1F1" height="2" style="stroke:#181818;stroke-width:0.5;" width="4" x="576.3203" y="779"/><rect fill="#F1F1F1" height="2" style="stroke:#181818;stroke-width:0.5;" width="4" x="576.3203" y="783"/><text fill="#000000" font-family="sans-serif" font-size="14" lengthAdjust="spacing" textLength="140.8203" x="432.5" y="806.0752">HeuristicLib REST API</text></g><!--entity grpcService--><g class="entity" data-qualified-name="HeuristicWeb.grpcService" data-source-line="92" id="ent0069"><rect fill="#F1F1F1" height="47.1514" rx="2.5" ry="2.5" style="stroke:#181818;stroke-width:0.5;" width="204.9443" x="633.5" y="772"/><rect fill="#F1F1F1" height="10" style="stroke:#181818;stroke-width:0.5;" width="15" x="818.4443" y="777"/><rect fill="#F1F1F1" height="2" style="stroke:#181818;stroke-width:0.5;" width="4" x="816.4443" y="779"/><rect fill="#F1F1F1" height="2" style="stroke:#181818;stroke-width:0.5;" width="4" x="816.4443" y="783"/><text fill="#000000" font-family="sans-serif" font-size="14" lengthAdjust="spacing" textLength="164.9443" x="648.5" y="806.0752">HeuristicLib gRPC Service</text></g><!--entity grpc--><g class="entity" data-qualified-name="HeuristicWeb.grpc" data-source-line="93" id="ent0070"><ellipse cx="883" cy="795.5" fill="#F1F1F1" rx="8" ry="8" style="stroke:#181818;stroke-width:0.5;"/><text fill="#000000" font-family="sans-serif" font-size="14" lengthAdjust="spacing" textLength="37.3447" x="864.3276" y="826.5752">gRPC</text></g><!--entity http--><g class="entity" data-qualified-name="HeuristicWeb.http" data-source-line="94" id="ent0071"><ellipse cx="373" cy="795.5" fill="#F1F1F1" rx="8" ry="8" style="stroke:#181818;stroke-width:0.5;"/><text fill="#000000" font-family="sans-serif" font-size="14" lengthAdjust="spacing" textLength="36.5518" x="354.7241" y="826.5752">HTTP</text></g><!--entity runner--><g class="entity" data-qualified-name="HeuristicLibWrapper.runner" data-source-line="103" id="ent0078"><rect fill="#F1F1F1" height="47.1514" rx="2.5" ry="2.5" style="stroke:#181818;stroke-width:0.5;" width="221.3027" x="397.5" y="895"/><rect fill="#F1F1F1" height="10" style="stroke:#181818;stroke-width:0.5;" width="15" x="598.8027" y="900"/><rect fill="#F1F1F1" height="2" style="stroke:#181818;stroke-width:0.5;" width="4" x="596.8027" y="902"/><rect fill="#F1F1F1" height="2" style="stroke:#181818;stroke-width:0.5;" width="4" x="596.8027" y="906"/><text fill="#000000" font-family="sans-serif" font-size="14" lengthAdjust="spacing" textLength="181.3027" x="412.5" y="929.0752">Symbolic Regression Runner</text></g><!--entity user--><g class="entity" data-qualified-name="user" data-source-line="2" id="ent0002"><ellipse cx="516.7793" cy="35.5" fill="#F1F1F1" rx="8" ry="8" style="stroke:#181818;stroke-width:0.5;"/><path d="M516.7793,43.5 L516.7793,70.5 M503.7793,51.5 L529.7793,51.5 M516.7793,70.5 L503.7793,85.5 M516.7793,70.5 L529.7793,85.5" fill="none" style="stroke:#181818;stroke-width:0.5;"/><text fill="#000000" font-family="sans-serif" font-size="14" lengthAdjust="spacing" textLength="29.5586" x="502" y="101.0752">User</text></g><!--entity mqttBroker--><g class="entity" data-qualified-name="mqttBroker" data-source-line="47" id="ent0033"><rect fill="#F1F1F1" height="47.1514" rx="2.5" ry="2.5" style="stroke:#181818;stroke-width:1;stroke-dasharray:7,7;" width="124.7793" x="174.5" y="42"/><rect fill="#F1F1F1" height="10" style="stroke:#181818;stroke-width:1;stroke-dasharray:7,7;" width="15" x="279.2793" y="47"/><rect fill="#F1F1F1" height="2" style="stroke:#181818;stroke-width:1;stroke-dasharray:7,7;" width="4" x="277.2793" y="49"/><rect fill="#F1F1F1" height="2" style="stroke:#181818;stroke-width:1;stroke-dasharray:7,7;" width="4" x="277.2793" y="53"/><text fill="#000000" font-family="sans-serif" font-size="14" lengthAdjust="spacing" textLength="84.7793" x="189.5" y="76.0752">MQTT Broker</text></g><!--entity mqtt--><g class="entity" data-qualified-name="mqtt" data-source-line="48" id="ent0034"><ellipse cx="237" cy="188.5" fill="#F1F1F1" rx="8" ry="8" style="stroke:#181818;stroke-width:0.5;"/><text fill="#000000" font-family="sans-serif" font-size="14" lengthAdjust="spacing" textLength="39.6553" x="217.1724" y="219.5752">MQTT</text></g><!--entity dsg--><g class="entity" data-qualified-name="dsg" data-source-line="49" id="ent0035"><rect fill="#F1F1F1" height="47.1514" rx="2.5" ry="2.5" style="stroke:#181818;stroke-width:1;stroke-dasharray:7,7;" width="185.5098" x="7" y="165"/><rect fill="#F1F1F1" height="10" style="stroke:#181818;stroke-width:1;stroke-dasharray:7,7;" width="15" x="172.5098" y="170"/><rect fill="#F1F1F1" height="2" style="stroke:#181818;stroke-width:1;stroke-dasharray:7,7;" width="4" x="170.5098" y="172"/><rect fill="#F1F1F1" height="2" style="stroke:#181818;stroke-width:1;stroke-dasharray:7,7;" width="4" x="170.5098" y="176"/><text fill="#000000" font-family="sans-serif" font-size="14" lengthAdjust="spacing" textLength="145.5098" x="22" y="199.0752">Data Stream Generator</text></g><!--entity redis--><g class="entity" data-qualified-name="redis" data-source-line="55" id="ent0040"><path d="M140,296 C140,286 167.8965,286 167.8965,286 C167.8965,286 195.793,286 195.793,296 L195.793,322.1514 C195.793,332.1514 167.8965,332.1514 167.8965,332.1514 C167.8965,332.1514 140,332.1514 140,322.1514 L140,296" fill="#F1F1F1" style="stroke:#181818;stroke-width:1;stroke-dasharray:7,7;"/><path d="M140,296 C140,306 167.8965,306 167.8965,306 C167.8965,306 195.793,306 195.793,296" fill="none" style="stroke:#181818;stroke-width:1;stroke-dasharray:7,7;"/><text fill="#000000" font-family="sans-serif" font-size="14" lengthAdjust="spacing" textLength="35.793" x="150" y="324.0752">Redis</text></g><!--entity resp--><g class="entity" data-qualified-name="resp" data-source-line="56" id="ent0041"><ellipse cx="240" cy="309" fill="#F1F1F1" rx="8" ry="8" style="stroke:#181818;stroke-width:0.5;"/><text fill="#000000" font-family="sans-serif" font-size="14" lengthAdjust="spacing" textLength="38.124" x="220.938" y="340.0752">RESP</text></g><g class="entity" data-qualified-name="GMN42" data-source-line="59" id="ent0043"><path d="M103.5,408.5 L103.5,450.3525 A0,0 0 0 0 103.5,450.3525 L232.8926,450.3525 A0,0 0 0 0 232.8926,450.3525 L232.8926,418.5 L222.8926,408.5 L172,408.5 L168,332.01 L164,408.5 L103.5,408.5 A0,0 0 0 0 103.5,408.5" fill="#FEFFDD" style="stroke:#181818;stroke-width:0.5;"/><path d="M222.8926,408.5 L222.8926,418.5 L232.8926,418.5 L222.8926,408.5" fill="#FEFFDD" style="stroke:#181818;stroke-width:0.5;"/><text fill="#000000" font-family="sans-serif" font-size="13" lengthAdjust="spacing" textLength="108.3926" x="109.5" y="426.5698">Stores models and</text><text fill="#000000" font-family="sans-serif" font-size="13" lengthAdjust="spacing" textLength="98.2554" x="109.5" y="442.4961">data from stream</text></g><!--entity HeuristicLib--><g class="entity" data-qualified-name="HeuristicLib" data-source-line="106" id="ent0079"><path d="M449,1002 L542.9033,1002 A3.75,3.75 0 0 1 545.4033,1004.5 L552.4033,1025.1514 L566.9033,1025.1514 A2.5,2.5 0 0 1 569.4033,1027.6514 L569.4033,1039.6514 A2.5,2.5 0 0 1 566.9033,1042.1514 L449,1042.1514 A2.5,2.5 0 0 1 446.5,1039.6514 L446.5,1004.5 A2.5,2.5 0 0 1 449,1002" fill="#F1F1F1" style="stroke:#181818;stroke-width:1;stroke-dasharray:7,7;"/><line style="stroke:#181818;stroke-width:1;stroke-dasharray:7,7;" x1="446.5" x2="552.4033" y1="1025.1514" y2="1025.1514"/><text fill="#000000" font-family="sans-serif" font-size="14" font-weight="bold" lengthAdjust="spacing" textLength="80.9033" x="456.5" y="1019.0752">HeuristicLib</text></g><!--link user to webClient--><g class="link" data-entity-1="ent0002" data-entity-2="ent0004" data-link-type="dependency" data-source-line="8" id="lnk5"><path d="M532.03,65.5 C543.62,65.5 549.2,65.5 560.78,65.5" fill="none" id="user-to-webClient" style="stroke:#181818;stroke-width:1;stroke-dasharray:7,7;"/><polygon fill="#181818" points="566.78,65.5,557.78,61.5,561.78,65.5,557.78,69.5,566.78,65.5" style="stroke:#181818;stroke-width:1;"/></g><!--link agentApi to agentServer--><g class="link" data-entity-1="ent0007" data-entity-2="ent0008" data-link-type="association" data-source-line="25" id="lnk16"><path d="M630.07,188.5 C641.68,188.5 653.3,188.5 664.91,188.5" fill="none" id="agentApi-agentServer" style="stroke:#181818;stroke-width:1;"/></g><!--reverse link redisClient to mcpServer--><g class="link" data-entity-1="ent0013" data-entity-2="ent0014" data-link-type="dependency" data-source-line="26" id="lnk17"><path d="M380.8942,335.8953 C412.4642,356.9153 454.3,384.76 485.92,405.81" fill="none" id="redisClient-backto-mcpServer" style="stroke:#181818;stroke-width:1;"/><polygon fill="#181818" points="375.9,332.57,381.1745,340.8874,380.0619,335.3411,385.6082,334.2284,375.9,332.57" style="stroke:#181818;stroke-width:1;"/></g><!--link agentServer to chatClient--><g class="link" data-entity-1="ent0008" data-entity-2="ent0009" data-link-type="dependency" data-source-line="27" id="lnk18"><path d="M722,212.07 C722,233.02 722,258.06 722,279.11" fill="none" id="agentServer-to-chatClient" style="stroke:#181818;stroke-width:1;"/><polygon fill="#181818" points="722,285.11,726,276.11,722,280.11,718,276.11,722,285.11" style="stroke:#181818;stroke-width:1;"/></g><!--link chatClient to mcpClient--><g class="link" data-entity-1="ent0009" data-entity-2="ent0010" data-link-type="dependency" data-source-line="28" id="lnk19"><path d="M722,332.57 C722,353.52 722,378.56 722,399.61" fill="none" id="chatClient-to-mcpClient" style="stroke:#181818;stroke-width:1;"/><polygon fill="#181818" points="722,405.61,726,396.61,722,400.61,718,396.61,722,405.61" style="stroke:#181818;stroke-width:1;"/></g><!--link mcpServer to mcp--><g class="link" data-entity-1="ent0014" data-entity-2="ent0015" data-link-type="association" data-source-line="29" id="lnk20"><path d="M578.17,429.5 C589.7,429.5 601.23,429.5 612.76,429.5" fill="none" id="mcpServer-mcp" style="stroke:#181818;stroke-width:1;"/></g><!--reverse link mcp to mcpClient--><g class="link" data-entity-1="ent0015" data-entity-2="ent0010" data-link-type="dependency" data-source-line="30" id="lnk22"><path d="M637.38,429.5 C649.06,429.5 654.74,429.5 666.42,429.5" fill="none" id="mcp-backto-mcpClient" style="stroke:#181818;stroke-width:1;stroke-dasharray:7,7;"/><polygon fill="#181818" points="631.38,429.5,640.38,433.5,636.38,429.5,640.38,425.5,631.38,429.5" style="stroke:#181818;stroke-width:1;"/></g><!--link mqttClient to redisClient--><g class="link" data-entity-1="ent0011" data-entity-2="ent0013" data-link-type="dependency" data-source-line="31" id="lnk23"><path d="M341.19,212.07 C341.37,233.02 341.5787,258.0602 341.7587,279.1102" fill="none" id="mqttClient-to-redisClient" style="stroke:#181818;stroke-width:1;"/><polygon fill="#181818" points="341.81,285.11,345.7329,276.0761,341.7672,280.1102,337.7332,276.1445,341.81,285.11" style="stroke:#181818;stroke-width:1;"/></g><!--link mqttClient to eval--><g class="link" data-entity-1="ent0011" data-entity-2="ent0012" data-link-type="dependency" data-source-line="32" id="lnk24"><path d="M400.62,188.5 C412.15,188.5 417.67,188.5 429.2,188.5" fill="none" id="mqttClient-to-eval" style="stroke:#181818;stroke-width:1;"/><polygon fill="#181818" points="435.2,188.5,426.2,184.5,430.2,188.5,426.2,192.5,435.2,188.5" style="stroke:#181818;stroke-width:1;"/></g><!--link eval to chatClient--><g class="link" data-entity-1="ent0012" data-entity-2="ent0009" data-link-type="dependency" data-source-line="33" id="lnk25"><path d="M547.14,212.07 C585.45,233.09 637.0093,261.3747 675.3893,282.4247" fill="none" id="eval-to-chatClient" style="stroke:#181818;stroke-width:1;"/><polygon fill="#181818" points="680.65,285.31,674.6825,277.4749,676.2661,282.9056,670.8354,284.4892,680.65,285.31" style="stroke:#181818;stroke-width:1;"/></g><!--reverse link eval to mcpServer--><g class="link" data-entity-1="ent0012" data-entity-2="ent0014" data-link-type="dependency" data-source-line="34" id="lnk27"><path d="M521.2651,217.5206 C529.4551,233.6606 536.69,250.81 541,272 C548.48,308.8 546.31,319.32 541,356.5 C538.59,373.39 533.15,391.84 528.41,405.84" fill="none" id="eval-backto-mcpServer" style="stroke:#181818;stroke-width:1;"/><polygon fill="#181818" points="518.55,212.17,519.0556,222.0059,520.8125,216.6288,526.1896,218.3858,518.55,212.17" style="stroke:#181818;stroke-width:1;"/></g><!--link eval to redisClient--><g class="link" data-entity-1="ent0012" data-entity-2="ent0013" data-link-type="dependency" data-source-line="35" id="lnk28"><path d="M474.77,212.07 C445.68,233.09 407.4037,260.7466 378.2637,281.7966" fill="none" id="eval-to-redisClient" style="stroke:#181818;stroke-width:1;"/><polygon fill="#181818" points="373.4,285.31,383.0379,283.2823,377.4531,282.3821,378.3533,276.7974,373.4,285.31" style="stroke:#181818;stroke-width:1;"/></g><!--link webClient to agentApi--><g class="link" data-entity-1="ent0004" data-entity-2="ent0007" data-link-type="dependency" data-source-line="45" id="lnk32"><path d="M621,89.26 C621,116.64 621,155.2 621,173.38" fill="none" id="webClient-to-agentApi" style="stroke:#181818;stroke-width:1;stroke-dasharray:7,7;"/><polygon fill="#181818" points="621,179.38,625,170.38,621,174.38,617,170.38,621,179.38" style="stroke:#181818;stroke-width:1;"/></g><!--link mqttBroker to mqtt--><g class="link" data-entity-1="ent0033" data-entity-2="ent0034" data-link-type="association" data-source-line="51" id="lnk36"><path d="M237,89.26 C237,116.64 237,161.2 237,179.38" fill="none" id="mqttBroker-mqtt" style="stroke:#181818;stroke-width:1;"/></g><!--reverse link mqtt to mqttClient--><g class="link" data-entity-1="ent0034" data-entity-2="ent0011" data-link-type="dependency" data-source-line="52" id="lnk38"><path d="M252.34,188.5 C264.05,188.5 269.76,188.5 281.47,188.5" fill="none" id="mqtt-backto-mqttClient" style="stroke:#181818;stroke-width:1;stroke-dasharray:7,7;"/><polygon fill="#181818" points="246.34,188.5,255.34,192.5,251.34,188.5,255.34,184.5,246.34,188.5" style="stroke:#181818;stroke-width:1;"/></g><!--link dsg to mqtt--><g class="link" data-entity-1="ent0035" data-entity-2="ent0034" data-link-type="dependency" data-source-line="53" id="lnk39"><path d="M193.12,188.5 C204.66,188.5 210.2,188.5 221.74,188.5" fill="none" id="dsg-to-mqtt" style="stroke:#181818;stroke-width:1;stroke-dasharray:7,7;"/><polygon fill="#181818" points="227.74,188.5,218.74,184.5,222.74,188.5,218.74,192.5,227.74,188.5" style="stroke:#181818;stroke-width:1;"/></g><!--reverse link resp to redisClient--><g class="link" data-entity-1="ent0041" data-entity-2="ent0013" data-link-type="dependency" data-source-line="63" id="lnk46"><path d="M255.16,309 C266.89,309 272.61,309 284.34,309" fill="none" id="resp-backto-redisClient" style="stroke:#181818;stroke-width:1;stroke-dasharray:7,7;"/><polygon fill="#181818" points="249.16,309,258.16,313,254.16,309,258.16,305,249.16,309" style="stroke:#181818;stroke-width:1;"/></g><!--link redis to resp--><g class="link" data-entity-1="ent0040" data-entity-2="ent0041" data-link-type="association" data-source-line="64" id="lnk48"><path d="M196.12,309 C207.67,309 219.21,309 230.75,309" fill="none" id="redis-resp" style="stroke:#181818;stroke-width:1;"/></g><!--link openRouterApi to openRouter--><g class="link" data-entity-1="ent0053" data-entity-2="ent0051" data-link-type="association" data-source-line="71" id="lnk54"><path d="M853.16,309 C864.77,309 876.37,309 887.98,309" fill="none" id="openRouterApi-openRouter" style="stroke:#181818;stroke-width:1;"/></g><!--reverse link llm to openRouter--><g class="link" data-entity-1="ent0052" data-entity-2="ent0051" data-link-type="dependency" data-source-line="72" id="lnk56"><path d="M946,218.07 C946,239.02 946,264.06 946,285.11" fill="none" id="llm-backto-openRouter" style="stroke:#181818;stroke-width:1;stroke-dasharray:7,7;"/><polygon fill="#181818" points="946,212.07,942,221.07,946,217.07,950,221.07,946,212.07" style="stroke:#181818;stroke-width:1;"/></g><!--link chatClient to openRouterApi--><g class="link" data-entity-1="ent0009" data-entity-2="ent0053" data-link-type="dependency" data-source-line="75" id="lnk57"><path d="M776.8,326.44 C796.14,327.58 810.0941,326.0442 829.4241,316.5542" fill="none" id="chatClient-to-openRouterApi" style="stroke:#181818;stroke-width:1;stroke-dasharray:7,7;"/><polygon fill="#181818" points="834.81,313.91,824.9683,314.2857,830.3217,316.1135,828.4939,321.4669,834.81,313.91" style="stroke:#181818;stroke-width:1;"/></g><!--link adapter to libClient--><g class="link" data-entity-1="ent0059" data-entity-2="ent0060" data-link-type="association" data-source-line="83" id="lnk63"><path d="M510.75,564.93 C483.73,579.35 403.68,622.05 353.5,648.82" fill="none" id="adapter-libClient" style="stroke:#181818;stroke-width:1;"/></g><!--link adapter to grpcClient--><g class="link" data-entity-1="ent0059" data-entity-2="ent0061" data-link-type="association" data-source-line="84" id="lnk64"><path d="M529.26,564.51 C557.96,578.48 646.83,621.75 702.36,648.79" fill="none" id="adapter-grpcClient" style="stroke:#181818;stroke-width:1;"/></g><!--link adapter to restClient--><g class="link" data-entity-1="ent0059" data-entity-2="ent0062" data-link-type="association" data-source-line="85" id="lnk65"><path d="M520,568.02 C520,584.7 520,623.65 520,648.72" fill="none" id="adapter-restClient" style="stroke:#181818;stroke-width:1;"/></g><!--link mcpServer to adapter--><g class="link" data-entity-1="ent0014" data-entity-2="ent0059" data-source-line="88" id="lnk66"><path d="M520,453 C520,481.88 520,520.56 520,539.81" fill="none" id="mcpServer-to-adapter" style="stroke:#181818;stroke-width:1;"/><path d="M528.4572,546.7318 A9,9 0 0 0 511.5428 546.7318" fill="none" style="stroke:#181818;stroke-width:1.5;"/></g><!--link grpcService to grpc--><g class="link" data-entity-1="ent0069" data-entity-2="ent0070" data-link-type="association" data-source-line="96" id="lnk73"><path d="M838.79,795.5 C850.41,795.5 862.04,795.5 873.67,795.5" fill="none" id="grpcService-grpc" style="stroke:#181818;stroke-width:1;"/></g><!--link http to restApi--><g class="link" data-entity-1="ent0071" data-entity-2="ent0068" data-link-type="association" data-source-line="97" id="lnk74"><path d="M382.23,795.5 C393.86,795.5 405.48,795.5 417.11,795.5" fill="none" id="http-restApi" style="stroke:#181818;stroke-width:1;"/></g><!--link restApi to grpcService--><!--link restApi to grpcService--><!--link libClient to runner--><g class="link" data-entity-1="ent0060" data-entity-2="ent0078" data-link-type="dependency" data-source-line="108" id="lnk80"><path d="M309.91,696.2 C309.43,731.47 313.46,799.85 348,843 C367.15,866.92 390.1966,881.2486 417.9466,892.5986" fill="none" id="libClient-to-runner" style="stroke:#181818;stroke-width:1;"/><polygon fill="#181818" points="423.5,894.87,416.6841,887.7606,418.8721,892.9772,413.6556,895.1652,423.5,894.87" style="stroke:#181818;stroke-width:1;"/></g><!--link grpcService to runner--><g class="link" data-entity-1="ent0069" data-entity-2="ent0078" data-link-type="dependency" data-source-line="109" id="lnk81"><path d="M693.38,819.12 C652.52,840.8 596.5003,870.5381 555.7103,892.1781" fill="none" id="grpcService-to-runner" style="stroke:#181818;stroke-width:1;"/><polygon fill="#181818" points="550.41,894.99,560.2351,894.3056,554.8269,892.6467,556.4858,887.2386,550.41,894.99" style="stroke:#181818;stroke-width:1;"/></g><!--link restApi to runner--><g class="link" data-entity-1="ent0068" data-entity-2="ent0078" data-link-type="dependency" data-source-line="110" id="lnk82"><path d="M508,819.26 C508,840.89 508,867.24 508,888.84" fill="none" id="restApi-to-runner" style="stroke:#181818;stroke-width:1;"/><polygon fill="#181818" points="508,894.84,512,885.84,508,889.84,504,885.84,508,894.84" style="stroke:#181818;stroke-width:1;"/></g><!--link grpcClient to grpc--><g class="link" data-entity-1="ent0061" data-entity-2="ent0070" data-link-type="dependency" data-source-line="111" id="lnk83"><path d="M811.57,696.07 C827.63,704.19 843.8,714.72 856,728 C871.67,745.07 877.6425,766.5567 880.3825,780.2467" fill="none" id="grpcClient-to-grpc" style="stroke:#181818;stroke-width:1;stroke-dasharray:7,7;"/><polygon fill="#181818" points="881.56,786.13,883.7159,776.52,880.5787,781.2272,875.8715,778.09,881.56,786.13" style="stroke:#181818;stroke-width:1;"/></g><!--link restClient to http--><g class="link" data-entity-1="ent0062" data-entity-2="ent0071" data-link-type="dependency" data-source-line="112" id="lnk84"><path d="M447.06,696.05 C429.98,704.01 412.99,714.47 400,728 C383.78,744.9 377.9218,766.942 375.3718,780.592" fill="none" id="restClient-to-http" style="stroke:#181818;stroke-width:1;stroke-dasharray:7,7;"/><polygon fill="#181818" points="374.27,786.49,379.8547,778.3776,375.1882,781.575,371.9907,776.9085,374.27,786.49" style="stroke:#181818;stroke-width:1;"/></g><!--link runner to HeuristicLib--><g class="link" data-entity-1="ent0078" data-entity-2="ent0079" data-link-type="dependency" data-source-line="113" id="lnk85"><path d="M508,942.03 C508,960.01 508,978.94 508,995.95" fill="none" id="runner-to-HeuristicLib" style="stroke:#181818;stroke-width:1;"/><polygon fill="#181818" points="508,1001.95,512,992.95,508,996.95,504,992.95,508,1001.95" style="stroke:#181818;stroke-width:1;"/></g><?plantuml-src ZLNDRjim3BxxAOZii5ti9nWAP5cn3cYtBCdGmx23R2k9KDjoPRb5KVJTHr6EJ2i_NGw1H7xy-qZHeh3QmEnt9yqCH0Sz7fAa5SM3s4dOozwepgeYnLjZqwtHZPLD2Qy9uA_GTQiRLC3iNkQmg1IUoSsppFqjUKiIvnCoarqnSGXnSmWnTn7GyKVdEMXrPuTWxgSmkjcAGiBiPhDPKYZARDwg08goMalpD1H7K7y_XLxiXUL557WVqZs1lbiiERWksWlONvlD1FneBtdMfQpW-abKlS3ka8N4cwVcRSgGBuTnn1ojPAaw7jSumUMI65rOKaGMun-n1z0XBu8TsW6fIOy8P_7XSrgcKGW61zHUnHqOhv2YTafvS4MHNLg3TB38gkng58S6aAUO5wusg2VsdS8TJgR6elV71jC8f6YqbP1hQtKDUkjnOnD_QAksIdPWzp88YHvutiicY50DZxseb7q9ijBejajyIx0fuSr1XWI4rvB4u_d5w8T3ux5yVuKFbMfaLefkByk4jnzD0fRx-YgiWBKrKjJmJJRIX14kkztKNSBYq30uLunwtp4dTAQqGEYMb1WZ5vqS9dmSxRFfhgxNom7MjKaIaUzjFVjhJ1TvhzqRn8tHb2Hr4G6tNmqTbUQ8vSDCgP9lzmTfbNgdI7Eb-nFxycShcvNkxS2u3jTf2P7LxUqTmQkgFiQTMewZN-gvWqr4z5P6IGI0hCUoC9Whbpq-QaNa-cYVtwfyNehMXkN4ysCW651-G_jpNFS4p_PPfNA-7iuOx5RB1RVQcRRu3pEScSrqUNQMl-0XLrmWKHvC4OLY6kODoMNh8_qKM3WcrNtGNj_FUhxy7b8-V1elikE2gq86UePxt3U73PYpGxUtjlKKEHWzXjYdWz3iyGo7CwH_zgeiPVFN71k-XtaxFOdtHhHjc4H6nVgbpdMb2bZ97Vhkb6vWrJVDC8-6ZkUyHkiiJ87_fdXJbXmNXpgcIBQfYU9nIaX6p7euMV9aady0?></g></svg>