<svg xmlns="http://www.w3.org/2000/svg" xmlns:xlink="http://www.w3.org/1999/xlink" contentStyleType="text/css" data-diagram-type="DESCRIPTION" height="316px" preserveAspectRatio="none" style="width:547px;height:316px;background:#FFFFFF;" version="1.1" viewBox="0 0 547 316" width="547px" zoomAndPan="magnify"><?plantuml 1.2026.6?><defs/><g><g class="cluster" data-qualified-name="..5" data-source-line="8" id="ent0006"><path d="M215.5189,18.4413 C219.7104,12.3223 223.6237,10.3531 228.9858,17.2281 C232.9801,11.2536 238.6175,10.7576 243.1384,16.5971 C248.0681,9.8634 253.9483,8.5025 259.0846,16.3715 C262.6131,9.639 267.1147,8.9381 271.8661,15.1655 C276.6942,8.5957 281.0475,6.8793 286.4339,14.5962 C289.9314,7.2222 296.3801,7.089 300.273,14.219 C303.3529,8.7916 308.7255,7.5906 312.8835,12.9598 C317.1347,6.692 323.9291,7.492 327.6251,13.62 C331.3308,6 338.5251,7.5597 342.0747,13.783 C346.9874,7.1319 353.5863,9.4185 355.9335,16.3925 C360.2975,9.8504 366.0186,11.3679 369.2434,17.5812 C372.2238,10.2401 377.3514,11.3468 381.8357,16.0028 C388.2229,7.9478 394.6992,10.7074 398.0836,18.9892 C400.6484,12.57 405.4012,11.8716 409.7508,17.2196 C417.568,21.05 418.4954,29.5918 411.2803,34.7349 C419.6933,39.0471 418.7662,44.2908 413.1452,50.2859 C421.9369,56.6363 420.3001,62.6317 411.7582,67.5929 C418.7024,71.3706 419.9345,78.2594 412.0384,82.3194 C406.9497,90.3157 402.0106,91.3327 396.1231,83.1028 C394.1291,89.911 388.5461,91.1093 384.2608,85.2481 C379.4316,92.0166 374.7015,93.9407 368.677,86.5651 C365.4838,92.5866 359.7142,93.215 356.2874,86.7979 C351.1768,95.2047 346.5296,93.4614 341.0873,87.1403 C336.7502,94.1244 331.0846,94.5112 327.0754,86.827 C322.9066,92.8827 316.996,94.091 312.8248,86.8296 C309.241,93.4095 305.0884,93.6115 300.2692,88.1138 C295.3948,94.7623 288.7829,94.1613 285.0808,86.8393 C279.4231,92.8231 274.6344,93.2695 270.926,84.9149 C267.1042,90.6891 262.8048,90.5497 258.6368,85.3009 C254.3092,90.9041 248.7731,90.8355 245.148,84.5068 C239.7567,92.456 234.3219,91.9908 228.9904,84.4444 C224.8278,89.5669 219.2714,89.3821 215.751,83.6604 C206.4205,80.7455 204.8695,74.713 209.7211,66.7431 C199.8294,65.1516 198.9577,57.0504 204.3354,50.4206 C199.1043,43.312 200.0233,36.4233 209.807,34.463 C205.0389,27.0967 206.7544,20.9831 215.5189,18.4413" fill="none" style="stroke:#181818;stroke-width:1;"/></g><!--entity llm--><g class="entity" data-qualified-name="..5.llm" data-source-line="9" id="ent0007"><rect fill="#F1F1F1" height="49.0679" rx="2.5" ry="2.5" style="stroke:#181818;stroke-width:1;stroke-dasharray:7,7;" width="126.7437" x="275.3" y="25.1612"/><rect fill="#F1F1F1" height="10" style="stroke:#181818;stroke-width:1;stroke-dasharray:7,7;" width="15" x="382.0437" y="30.1612"/><rect fill="#F1F1F1" height="2" style="stroke:#181818;stroke-width:1;stroke-dasharray:7,7;" width="4" x="380.0437" y="32.1612"/><rect fill="#F1F1F1" height="2" style="stroke:#181818;stroke-width:1;stroke-dasharray:7,7;" width="4" x="380.0437" y="36.1612"/><text fill="#000000" font-family="sans-serif" font-size="14" lengthAdjust="spacing" textLength="86.7437" x="290.3" y="60.1272">LLM Provider</text></g><!--entity llmHttp--><g class="entity" data-qualified-name="..5.llmHttp" data-source-line="10" id="ent0008"><ellipse cx="231.67" cy="49.6912" fill="#F1F1F1" rx="8" ry="8" style="stroke:#181818;stroke-width:0.5;"/><text fill="#000000" font-family="sans-serif" font-size="14" lengthAdjust="spacing" textLength="34.4119" x="214.4641" y="81.6572">HTTP</text></g><!--entity hWeb--><g class="entity" data-qualified-name="hWeb" data-source-line="4" id="ent0001"><rect fill="#F1F1F1" height="49.0679" rx="2.5" ry="2.5" style="stroke:#181818;stroke-width:0.5;" width="185.2775" x="348.03" y="134.2212"/><rect fill="#F1F1F1" height="10" style="stroke:#181818;stroke-width:0.5;" width="15" x="513.3075" y="139.2212"/><rect fill="#F1F1F1" height="2" style="stroke:#181818;stroke-width:0.5;" width="4" x="511.3075" y="141.2212"/><rect fill="#F1F1F1" height="2" style="stroke:#181818;stroke-width:0.5;" width="4" x="511.3075" y="145.2212"/><text fill="#000000" font-family="sans-serif" font-size="14" lengthAdjust="spacing" textLength="145.2775" x="363.03" y="169.1872">AIsra.HeuristicLibWeb</text></g><!--entity gRpc--><g class="entity" data-qualified-name="gRpc" data-source-line="5" id="ent0002"><ellipse cx="303.67" cy="158.7612" fill="#F1F1F1" rx="8" ry="8" style="stroke:#181818;stroke-width:0.5;"/><text fill="#000000" font-family="sans-serif" font-size="14" lengthAdjust="spacing" textLength="34.6359" x="286.3521" y="190.7272">gRPC</text></g><!--entity redis--><g class="entity" data-qualified-name="redis" data-source-line="14" id="ent0010"><path d="M7.91,144.7212 C7.91,134.7212 35.6759,134.7212 35.6759,134.7212 C35.6759,134.7212 63.4419,134.7212 63.4419,144.7212 L63.4419,172.7892 C63.4419,182.7892 35.6759,182.7892 35.6759,182.7892 C35.6759,182.7892 7.91,182.7892 7.91,172.7892 L7.91,144.7212" fill="#F1F1F1" style="stroke:#181818;stroke-width:1;stroke-dasharray:7,7;"/><path d="M7.91,144.7212 C7.91,154.7212 35.6759,154.7212 35.6759,154.7212 C35.6759,154.7212 63.4419,154.7212 63.4419,144.7212" fill="none" style="stroke:#181818;stroke-width:1;stroke-dasharray:7,7;"/><text fill="#000000" font-family="sans-serif" font-size="14" lengthAdjust="spacing" textLength="35.5319" x="17.91" y="173.6872">Redis</text></g><!--entity resp--><g class="entity" data-qualified-name="resp" data-source-line="15" id="ent0011"><ellipse cx="107.67" cy="158.7612" fill="#F1F1F1" rx="8" ry="8" style="stroke:#181818;stroke-width:0.5;"/><text fill="#000000" font-family="sans-serif" font-size="14" lengthAdjust="spacing" textLength="32.6479" x="91.3461" y="190.7272">RESP</text></g><!--entity broker--><g class="entity" data-qualified-name="broker" data-source-line="18" id="ent0014"><rect fill="#F1F1F1" height="49.0679" rx="2.5" ry="2.5" style="stroke:#181818;stroke-width:1;stroke-dasharray:7,7;" width="127.3457" x="7" y="25.1612"/><rect fill="#F1F1F1" height="10" style="stroke:#181818;stroke-width:1;stroke-dasharray:7,7;" width="15" x="114.3457" y="30.1612"/><rect fill="#F1F1F1" height="2" style="stroke:#181818;stroke-width:1;stroke-dasharray:7,7;" width="4" x="112.3457" y="32.1612"/><rect fill="#F1F1F1" height="2" style="stroke:#181818;stroke-width:1;stroke-dasharray:7,7;" width="4" x="112.3457" y="36.1612"/><text fill="#000000" font-family="sans-serif" font-size="14" lengthAdjust="spacing" textLength="87.3457" x="22" y="60.1272">MQTT Broker</text></g><!--entity mqtt--><g class="entity" data-qualified-name="mqtt" data-source-line="19" id="ent0015"><ellipse cx="178.67" cy="49.6912" fill="#F1F1F1" rx="8" ry="8" style="stroke:#181818;stroke-width:0.5;"/><text fill="#000000" font-family="sans-serif" font-size="14" lengthAdjust="spacing" textLength="39.1998" x="159.0701" y="81.6572">MQTT</text></g><!--entity aisraWeb--><g class="entity" data-qualified-name="aisraWeb" data-source-line="22" id="ent0018"><rect fill="#F1F1F1" height="49.0679" rx="2.5" ry="2.5" style="stroke:#181818;stroke-width:0.5;" width="107.3118" x="152.02" y="134.2212"/><rect fill="#F1F1F1" height="10" style="stroke:#181818;stroke-width:0.5;" width="15" x="239.3318" y="139.2212"/><rect fill="#F1F1F1" height="2" style="stroke:#181818;stroke-width:0.5;" width="4" x="237.3318" y="141.2212"/><rect fill="#F1F1F1" height="2" style="stroke:#181818;stroke-width:0.5;" width="4" x="237.3318" y="145.2212"/><text fill="#000000" font-family="sans-serif" font-size="14" lengthAdjust="spacing" textLength="67.3118" x="167.02" y="169.1872">AIsra.Web</text></g><!--entity aisraHttp--><g class="entity" data-qualified-name="aisraHttp" data-source-line="23" id="ent0019"><ellipse cx="205.67" cy="267.8312" fill="#F1F1F1" rx="8" ry="8" style="stroke:#181818;stroke-width:0.5;"/><text fill="#000000" font-family="sans-serif" font-size="14" lengthAdjust="spacing" textLength="34.4119" x="188.4641" y="299.7972">HTTP</text></g><!--entity frontend--><g class="entity" data-qualified-name="frontend" data-source-line="30" id="ent0029"><rect fill="#F1F1F1" height="49.0679" rx="2.5" ry="2.5" style="stroke:#181818;stroke-width:0.5;" width="134.2477" x="249.55" y="243.2912"/><rect fill="#F1F1F1" height="10" style="stroke:#181818;stroke-width:0.5;" width="15" x="363.7977" y="248.2912"/><rect fill="#F1F1F1" height="2" style="stroke:#181818;stroke-width:0.5;" width="4" x="361.7977" y="250.2912"/><rect fill="#F1F1F1" height="2" style="stroke:#181818;stroke-width:0.5;" width="4" x="361.7977" y="254.2912"/><text fill="#000000" font-family="sans-serif" font-size="14" lengthAdjust="spacing" textLength="94.2477" x="264.55" y="278.2572">aisra-frontend</text></g><!--link gRpc to hWeb--><g class="link" data-entity-1="ent0002" data-entity-2="ent0001" data-link-type="association" data-source-line="6" id="lnk4"><path d="M313.04,158.7612 C324.67,158.7612 336.3,158.7612 347.94,158.7612" fill="none" id="gRpc-hWeb" style="stroke:#181818;stroke-width:1;"/></g><!--link llmHttp to llm--><g class="link" data-entity-1="ent0008" data-entity-2="ent0007" data-link-type="association" data-source-line="11" id="lnk9"><path d="M240.87,49.6912 C252.2,49.6912 263.54,49.6912 274.87,49.6912" fill="none" id="llmHttp-llm" style="stroke:#181818;stroke-width:1;"/></g><!--link redis to resp--><g class="link" data-entity-1="ent0010" data-entity-2="ent0011" data-link-type="association" data-source-line="16" id="lnk13"><path d="M63.8,158.7612 C75.34,158.7612 86.88,158.7612 98.42,158.7612" fill="none" id="redis-resp" style="stroke:#181818;stroke-width:1;"/></g><!--link broker to mqtt--><g class="link" data-entity-1="ent0014" data-entity-2="ent0015" data-link-type="association" data-source-line="20" id="lnk17"><path d="M134.8,49.6912 C146.34,49.6912 157.88,49.6912 169.42,49.6912" fill="none" id="broker-mqtt" style="stroke:#181818;stroke-width:1;"/></g><!--link aisraWeb to aisraHttp--><g class="link" data-entity-1="ent0018" data-entity-2="ent0019" data-link-type="association" data-source-line="24" id="lnk21"><path d="M205.67,183.7912 C205.67,207.7112 205.67,243.0612 205.67,258.7812" fill="none" id="aisraWeb-aisraHttp" style="stroke:#181818;stroke-width:1;"/></g><!--reverse link llmHttp to aisraWeb--><g class="link" data-entity-1="ent0008" data-entity-2="ent0018" data-link-type="dependency" data-source-line="25" id="lnk23"><path d="M228.4496,63.9499 C224.5696,79.9199 217.19,110.3312 211.42,134.0812" fill="none" id="llmHttp-backto-aisraWeb" style="stroke:#181818;stroke-width:1;stroke-dasharray:7,7;"/><polygon fill="#181818" points="229.63,59.0912,223.6183,66.8925,228.4496,63.9499,231.3921,68.7812,229.63,59.0912" style="stroke:#181818;stroke-width:1;stroke-linejoin:miter;stroke-miterlimit:10;"/></g><!--reverse link resp to aisraWeb--><g class="link" data-entity-1="ent0011" data-entity-2="ent0018" data-link-type="dependency" data-source-line="26" id="lnk25"><path d="M121.86,158.7612 C133.42,158.7612 139.99,158.7612 151.55,158.7612" fill="none" id="resp-backto-aisraWeb" style="stroke:#181818;stroke-width:1;stroke-dasharray:7,7;"/><polygon fill="#181818" points="116.86,158.7612,125.86,162.7612,121.86,158.7612,125.86,154.7612,116.86,158.7612" style="stroke:#181818;stroke-width:1;stroke-linejoin:miter;stroke-miterlimit:10;"/></g><!--reverse link mqtt to aisraWeb--><g class="link" data-entity-1="ent0015" data-entity-2="ent0018" data-link-type="dependency" data-source-line="27" id="lnk27"><path d="M182.0134,63.9393 C186.0434,79.9093 193.71,110.3312 199.7,134.0812" fill="none" id="mqtt-backto-aisraWeb" style="stroke:#181818;stroke-width:1;stroke-dasharray:7,7;"/><polygon fill="#181818" points="180.79,59.0912,179.1137,68.7964,182.0134,63.9393,186.8705,66.839,180.79,59.0912" style="stroke:#181818;stroke-width:1;stroke-linejoin:miter;stroke-miterlimit:10;"/></g><!--link aisraWeb to gRpc--><g class="link" data-entity-1="ent0018" data-entity-2="ent0002" data-link-type="dependency" data-source-line="28" id="lnk28"><path d="M259.65,158.7612 C271.23,158.7612 277.81,158.7612 289.39,158.7612" fill="none" id="aisraWeb-to-gRpc" style="stroke:#181818;stroke-width:1;stroke-dasharray:7,7;"/><polygon fill="#181818" points="294.39,158.7612,285.39,154.7612,289.39,158.7612,285.39,162.7612,294.39,158.7612" style="stroke:#181818;stroke-width:1;stroke-linejoin:miter;stroke-miterlimit:10;"/></g><!--reverse link aisraHttp to frontend--><g class="link" data-entity-1="ent0019" data-entity-2="ent0029" data-link-type="dependency" data-source-line="31" id="lnk31"><path d="M219.78,267.8312 C231.32,267.8312 237.86,267.8312 249.41,267.8312" fill="none" id="aisraHttp-backto-frontend" style="stroke:#181818;stroke-width:1;stroke-dasharray:7,7;"/><polygon fill="#181818" points="214.78,267.8312,223.78,271.8312,219.78,267.8312,223.78,263.8312,214.78,267.8312" style="stroke:#181818;stroke-width:1;stroke-linejoin:miter;stroke-miterlimit:10;"/></g><?plantuml-src TL71RiCW3Btp5LPw9fymQQisPL8hPLcadGdG5fL0PiWkq_vzu2HDEcaSoBFzddbsmjMuGQ3eeHFoUaO_EhNtrYFiNkWm9dq_UATTXCVNWAAiz8WcH2CFfllG7OW0b_HbnaMD9o4r5EUctXUvS6u6oN8LkELJnAJreu9l1kcilOl3uGWr-Y-ZD9BMsXvsrZXTAX4kMf5WyqZLjlL2h68Sg3vZuCWpPZ-CAH559q9ID5gPG1BCwBxxfdFp_5xFj32mV95z4cttKHpVsXQUq5zdont1V_jcEl7wpnXPlgZlfBfhF6qwxOtemgJepuflqrEHvhyXu2DVHGk0SYmVRijQipPbQT1x8dbSKvXIy_zRRLAPdz0dNqwHdILW2vWUM5t-0W00?></g></svg>