<?plantuml 1.2026.2?><svg xmlns="http://www.w3.org/2000/svg" xmlns:xlink="http://www.w3.org/1999/xlink" contentStyleType="text/css" data-diagram-type="SEQUENCE" height="933.3px" preserveAspectRatio="none" style="width:719px;height:933px;background:#FFFFFF;" version="1.1" viewBox="0 0 719 933" width="719.1px" zoomAndPan="magnify"><defs/><g><g><title>Redis</title><rect fill="#FFFFFF" height="26.9336" style="stroke:#181818;stroke-width:0.9;" width="9" x="117.4008" y="457.3771"/></g><g><title>Redis</title><rect fill="#FFFFFF" height="26.9336" style="stroke:#181818;stroke-width:0.9;" width="9" x="117.4008" y="592.0453"/></g><g><title>HeuristicLib</title><rect fill="#FFFFFF" height="26.9336" style="stroke:#181818;stroke-width:0.9;" width="9" x="188.0196" y="684.5462"/></g><g><title>Model</title><rect fill="#FFFFFF" height="26.9336" style="stroke:#181818;stroke-width:0.9;" width="9" x="269.1466" y="322.7089"/></g><g><title>MCP</title><rect fill="#FFFFFF" height="107.7346" style="stroke:#181818;stroke-width:0.9;" width="9" x="399.4664" y="268.8416"/></g><g><title>MCP</title><rect fill="#FFFFFF" height="107.7346" style="stroke:#181818;stroke-width:0.9;" width="9" x="399.4664" y="403.5098"/></g><g><title>MCP</title><rect fill="#FFFFFF" height="212.8355" style="stroke:#181818;stroke-width:0.9;" width="9" x="399.4664" y="538.178"/></g><g><title>Chat Client</title><rect fill="#FFFFFF" height="26.9336" style="stroke:#181818;stroke-width:0.9;" width="9" x="538.1235" y="842.6808"/></g><rect fill="none" height="607.8401" style="stroke:#000000;stroke-width:1.35;" width="632.99" x="81.4939" y="183.607"/><rect fill="none" height="552.1729" style="stroke:#000000;stroke-width:1.35;" width="614.99" x="90.4939" y="232.9743"/><g class="participant-lifeline" data-entity-uid="part1" data-qualified-name="mqttClient" id="part1-lifeline"><g><title>MQTT</title><rect fill="#000000" fill-opacity="0.00000" height="748.8747" width="7.2" x="42.714" y="48.8725"/><line style="stroke:#181818;stroke-width:0.45;stroke-dasharray:4.5,4.5;" x1="45.5691" x2="45.5691" y1="48.8725" y2="797.7472"/></g><line style="stroke:#181818;stroke-width:0.45;stroke-dasharray:0.9,3.6;" x1="45.5691" x2="45.5691" y1="797.7472" y2="822.9472"/><g><title>MQTT</title><rect fill="#000000" fill-opacity="0.00000" height="62.8673" width="7.2" x="42.714" y="822.9472"/><line style="stroke:#181818;stroke-width:0.45;stroke-dasharray:4.5,4.5;" x1="45.5691" x2="45.5691" y1="822.9472" y2="885.8145"/></g></g><g class="participant-lifeline" data-entity-uid="part2" data-qualified-name="redis" id="part2-lifeline"><g><title>Redis</title><rect fill="#000000" fill-opacity="0.00000" height="748.8747" width="7.2" x="118.3008" y="48.8725"/><line style="stroke:#181818;stroke-width:0.45;stroke-dasharray:4.5,4.5;" x1="121.0939" x2="121.0939" y1="48.8725" y2="797.7472"/></g><line style="stroke:#181818;stroke-width:0.45;stroke-dasharray:0.9,3.6;" x1="121.0939" x2="121.0939" y1="797.7472" y2="822.9472"/><g><title>Redis</title><rect fill="#000000" fill-opacity="0.00000" height="62.8673" width="7.2" x="118.3008" y="822.9472"/><line style="stroke:#181818;stroke-width:0.45;stroke-dasharray:4.5,4.5;" x1="121.0939" x2="121.0939" y1="822.9472" y2="885.8145"/></g></g><g class="participant-lifeline" data-entity-uid="part3" data-qualified-name="wrapper" id="part3-lifeline"><g><title>HeuristicLib</title><rect fill="#000000" fill-opacity="0.00000" height="748.8747" width="7.2" x="188.9196" y="48.8725"/><line style="stroke:#181818;stroke-width:0.45;stroke-dasharray:4.5,4.5;" x1="192.0076" x2="192.0076" y1="48.8725" y2="797.7472"/></g><line style="stroke:#181818;stroke-width:0.45;stroke-dasharray:0.9,3.6;" x1="192.0076" x2="192.0076" y1="797.7472" y2="822.9472"/><g><title>HeuristicLib</title><rect fill="#000000" fill-opacity="0.00000" height="62.8673" width="7.2" x="188.9196" y="822.9472"/><line style="stroke:#181818;stroke-width:0.45;stroke-dasharray:4.5,4.5;" x1="192.0076" x2="192.0076" y1="822.9472" y2="885.8145"/></g></g><g class="participant-lifeline" data-entity-uid="part4" data-qualified-name="eval" id="part4-lifeline"><g><title>Model</title><rect fill="#000000" fill-opacity="0.00000" height="748.8747" width="7.2" x="270.0466" y="48.8725"/><line style="stroke:#181818;stroke-width:0.45;stroke-dasharray:4.5,4.5;" x1="273.1315" x2="273.1315" y1="48.8725" y2="797.7472"/></g><line style="stroke:#181818;stroke-width:0.45;stroke-dasharray:0.9,3.6;" x1="273.1315" x2="273.1315" y1="797.7472" y2="822.9472"/><g><title>Model</title><rect fill="#000000" fill-opacity="0.00000" height="62.8673" width="7.2" x="270.0466" y="822.9472"/><line style="stroke:#181818;stroke-width:0.45;stroke-dasharray:4.5,4.5;" x1="273.1315" x2="273.1315" y1="822.9472" y2="885.8145"/></g></g><g class="participant-lifeline" data-entity-uid="part5" data-qualified-name="mcp" id="part5-lifeline"><g><title>MCP</title><rect fill="#000000" fill-opacity="0.00000" height="748.8747" width="7.2" x="400.3664" y="48.8725"/><line style="stroke:#181818;stroke-width:0.45;stroke-dasharray:4.5,4.5;" x1="403.4109" x2="403.4109" y1="48.8725" y2="797.7472"/></g><line style="stroke:#181818;stroke-width:0.45;stroke-dasharray:0.9,3.6;" x1="403.4109" x2="403.4109" y1="797.7472" y2="822.9472"/><g><title>MCP</title><rect fill="#000000" fill-opacity="0.00000" height="62.8673" width="7.2" x="400.3664" y="822.9472"/><line style="stroke:#181818;stroke-width:0.45;stroke-dasharray:4.5,4.5;" x1="403.4109" x2="403.4109" y1="822.9472" y2="885.8145"/></g></g><g class="participant-lifeline" data-entity-uid="part6" data-qualified-name="chatClient" id="part6-lifeline"><g><title>Chat Client</title><rect fill="#000000" fill-opacity="0.00000" height="748.8747" width="7.2" x="539.0235" y="48.8725"/><line style="stroke:#181818;stroke-width:0.45;stroke-dasharray:4.5,4.5;" x1="542.0588" x2="542.0588" y1="48.8725" y2="797.7472"/></g><line style="stroke:#181818;stroke-width:0.45;stroke-dasharray:0.9,3.6;" x1="542.0588" x2="542.0588" y1="797.7472" y2="822.9472"/><g><title>Chat Client</title><rect fill="#000000" fill-opacity="0.00000" height="62.8673" width="7.2" x="539.0235" y="822.9472"/><line style="stroke:#181818;stroke-width:0.45;stroke-dasharray:4.5,4.5;" x1="542.0588" x2="542.0588" y1="822.9472" y2="885.8145"/></g></g><g class="participant-lifeline" data-entity-uid="part7" data-qualified-name="frontend" id="part7-lifeline"><g><title>Frontend</title><rect fill="#000000" fill-opacity="0.00000" height="748.8747" width="7.2" x="661.3686" y="48.8725"/><line style="stroke:#181818;stroke-width:0.45;stroke-dasharray:4.5,4.5;" x1="664.9532" x2="664.9532" y1="48.8725" y2="797.7472"/></g><line style="stroke:#181818;stroke-width:0.45;stroke-dasharray:0.9,3.6;" x1="664.9532" x2="664.9532" y1="797.7472" y2="822.9472"/><g><title>Frontend</title><rect fill="#000000" fill-opacity="0.00000" height="62.8673" width="7.2" x="661.3686" y="822.9472"/><line style="stroke:#181818;stroke-width:0.45;stroke-dasharray:4.5,4.5;" x1="664.9532" x2="664.9532" y1="822.9472" y2="885.8145"/></g></g><g class="participant participant-head" data-entity-uid="part1" data-qualified-name="mqttClient" id="part1-head"><rect fill="#E2E2F0" height="43.4725" rx="2.25" ry="2.25" style="stroke:#181818;stroke-width:0.45;" width="48.2897" x="22.1691" y="4.5"/><text fill="#000000" font-family="sans-serif" font-size="12.6" lengthAdjust="spacing" textLength="35.6897" x="28.4691" y="23.4677">MQTT</text><text fill="#000000" font-family="sans-serif" font-size="12.6" lengthAdjust="spacing" textLength="32.2137" x="30.2071" y="38.9039">Client</text></g><g class="participant participant-tail" data-entity-uid="part1" data-qualified-name="mqttClient" id="part1-tail"><rect fill="#E2E2F0" height="43.4725" rx="2.25" ry="2.25" style="stroke:#181818;stroke-width:0.45;" width="48.2897" x="22.1691" y="884.9145"/><text fill="#000000" font-family="sans-serif" font-size="12.6" lengthAdjust="spacing" textLength="35.6897" x="28.4691" y="903.8821">MQTT</text><text fill="#000000" font-family="sans-serif" font-size="12.6" lengthAdjust="spacing" textLength="32.2137" x="30.2071" y="919.3184">Client</text></g><g class="participant participant-head" data-entity-uid="part2" data-qualified-name="redis" id="part2-head"><rect fill="#E2E2F0" height="43.4725" rx="2.25" ry="2.25" style="stroke:#181818;stroke-width:0.45;" width="44.8137" x="99.4939" y="4.5"/><text fill="#000000" font-family="sans-serif" font-size="12.6" lengthAdjust="spacing" textLength="32.2137" x="105.7939" y="23.4677">Redis</text><text fill="#000000" font-family="sans-serif" font-size="12.6" lengthAdjust="spacing" textLength="32.2137" x="105.7939" y="38.9039">Client</text></g><g class="participant participant-tail" data-entity-uid="part2" data-qualified-name="redis" id="part2-tail"><rect fill="#E2E2F0" height="43.4725" rx="2.25" ry="2.25" style="stroke:#181818;stroke-width:0.45;" width="44.8137" x="99.4939" y="884.9145"/><text fill="#000000" font-family="sans-serif" font-size="12.6" lengthAdjust="spacing" textLength="32.2137" x="105.7939" y="903.8821">Redis</text><text fill="#000000" font-family="sans-serif" font-size="12.6" lengthAdjust="spacing" textLength="32.2137" x="105.7939" y="919.3184">Client</text></g><g class="participant participant-head" data-entity-uid="part3" data-qualified-name="wrapper" id="part3-head"><rect fill="#E2E2F0" height="43.4725" rx="2.25" ry="2.25" style="stroke:#181818;stroke-width:0.45;" width="78.4239" x="153.3076" y="4.5"/><text fill="#000000" font-family="sans-serif" font-size="12.6" lengthAdjust="spacing" textLength="65.8239" x="159.6076" y="23.4677">HeuristicLib</text><text fill="#000000" font-family="sans-serif" font-size="12.6" lengthAdjust="spacing" textLength="48.3144" x="168.3624" y="38.9039">Wrapper</text></g><g class="participant participant-tail" data-entity-uid="part3" data-qualified-name="wrapper" id="part3-tail"><rect fill="#E2E2F0" height="43.4725" rx="2.25" ry="2.25" style="stroke:#181818;stroke-width:0.45;" width="78.4239" x="153.3076" y="884.9145"/><text fill="#000000" font-family="sans-serif" font-size="12.6" lengthAdjust="spacing" textLength="65.8239" x="159.6076" y="903.8821">HeuristicLib</text><text fill="#000000" font-family="sans-serif" font-size="12.6" lengthAdjust="spacing" textLength="48.3144" x="168.3624" y="919.3184">Wrapper</text></g><g class="participant participant-head" data-entity-uid="part4" data-qualified-name="eval" id="part4-head"><rect fill="#E2E2F0" height="43.4725" rx="2.25" ry="2.25" style="stroke:#181818;stroke-width:0.45;" width="65.8301" x="240.7315" y="4.5"/><text fill="#000000" font-family="sans-serif" font-size="12.6" lengthAdjust="spacing" textLength="34.3178" x="256.4877" y="23.4677">Model</text><text fill="#000000" font-family="sans-serif" font-size="12.6" lengthAdjust="spacing" textLength="53.2301" x="247.0315" y="38.9039">Evaluator</text></g><g class="participant participant-tail" data-entity-uid="part4" data-qualified-name="eval" id="part4-tail"><rect fill="#E2E2F0" height="43.4725" rx="2.25" ry="2.25" style="stroke:#181818;stroke-width:0.45;" width="65.8301" x="240.7315" y="884.9145"/><text fill="#000000" font-family="sans-serif" font-size="12.6" lengthAdjust="spacing" textLength="34.3178" x="256.4877" y="903.8821">Model</text><text fill="#000000" font-family="sans-serif" font-size="12.6" lengthAdjust="spacing" textLength="53.2301" x="247.0315" y="919.3184">Evaluator</text></g><g class="participant participant-head" data-entity-uid="part5" data-qualified-name="mcp" id="part5-head"><rect fill="#E2E2F0" height="43.4725" rx="2.25" ry="2.25" style="stroke:#181818;stroke-width:0.45;" width="49.7109" x="379.1109" y="4.5"/><text fill="#000000" font-family="sans-serif" font-size="12.6" lengthAdjust="spacing" textLength="27.9993" x="389.9667" y="23.4677">MCP</text><text fill="#000000" font-family="sans-serif" font-size="12.6" lengthAdjust="spacing" textLength="37.1109" x="385.4109" y="38.9039">Server</text></g><g class="participant participant-tail" data-entity-uid="part5" data-qualified-name="mcp" id="part5-tail"><rect fill="#E2E2F0" height="43.4725" rx="2.25" ry="2.25" style="stroke:#181818;stroke-width:0.45;" width="49.7109" x="379.1109" y="884.9145"/><text fill="#000000" font-family="sans-serif" font-size="12.6" lengthAdjust="spacing" textLength="27.9993" x="389.9667" y="903.8821">MCP</text><text fill="#000000" font-family="sans-serif" font-size="12.6" lengthAdjust="spacing" textLength="37.1109" x="385.4109" y="919.3184">Server</text></g><g class="participant participant-head" data-entity-uid="part6" data-qualified-name="chatClient" id="part6-head"><rect fill="#E2E2F0" height="43.4725" rx="2.25" ry="2.25" style="stroke:#181818;stroke-width:0.45;" width="74.9294" x="505.1588" y="4.5"/><text fill="#000000" font-family="sans-serif" font-size="12.6" lengthAdjust="spacing" textLength="62.3294" x="511.4588" y="23.4677">Chat Client</text><text fill="#000000" font-family="sans-serif" font-size="12.6" lengthAdjust="spacing" textLength="32.9027" x="526.1722" y="38.9039">(LLM)</text></g><g class="participant participant-tail" data-entity-uid="part6" data-qualified-name="chatClient" id="part6-tail"><rect fill="#E2E2F0" height="43.4725" rx="2.25" ry="2.25" style="stroke:#181818;stroke-width:0.45;" width="74.9294" x="505.1588" y="884.9145"/><text fill="#000000" font-family="sans-serif" font-size="12.6" lengthAdjust="spacing" textLength="62.3294" x="511.4588" y="903.8821">Chat Client</text><text fill="#000000" font-family="sans-serif" font-size="12.6" lengthAdjust="spacing" textLength="32.9027" x="526.1722" y="919.3184">(LLM)</text></g><g class="participant participant-head" data-entity-uid="part7" data-qualified-name="frontend" id="part7-head"><rect fill="#E2E2F0" height="28.0362" rx="2.25" ry="2.25" style="stroke:#181818;stroke-width:0.45;" width="63.0308" x="633.4532" y="19.9362"/><text fill="#000000" font-family="sans-serif" font-size="12.6" lengthAdjust="spacing" textLength="50.4308" x="639.7532" y="38.9039">Frontend</text></g><g class="participant participant-tail" data-entity-uid="part7" data-qualified-name="frontend" id="part7-tail"><rect fill="#E2E2F0" height="28.0362" rx="2.25" ry="2.25" style="stroke:#181818;stroke-width:0.45;" width="63.0308" x="633.4532" y="884.9145"/><text fill="#000000" font-family="sans-serif" font-size="12.6" lengthAdjust="spacing" textLength="50.4308" x="639.7532" y="903.8821">Frontend</text></g><g><title>Redis</title><rect fill="#FFFFFF" height="26.9336" style="stroke:#181818;stroke-width:0.9;" width="9" x="117.4008" y="457.3771"/></g><g><title>Redis</title><rect fill="#FFFFFF" height="26.9336" style="stroke:#181818;stroke-width:0.9;" width="9" x="117.4008" y="592.0453"/></g><g><title>HeuristicLib</title><rect fill="#FFFFFF" height="26.9336" style="stroke:#181818;stroke-width:0.9;" width="9" x="188.0196" y="684.5462"/></g><g><title>Model</title><rect fill="#FFFFFF" height="26.9336" style="stroke:#181818;stroke-width:0.9;" width="9" x="269.1466" y="322.7089"/></g><g><title>MCP</title><rect fill="#FFFFFF" height="107.7346" style="stroke:#181818;stroke-width:0.9;" width="9" x="399.4664" y="268.8416"/></g><g><title>MCP</title><rect fill="#FFFFFF" height="107.7346" style="stroke:#181818;stroke-width:0.9;" width="9" x="399.4664" y="403.5098"/></g><g><title>MCP</title><rect fill="#FFFFFF" height="212.8355" style="stroke:#181818;stroke-width:0.9;" width="9" x="399.4664" y="538.178"/></g><g><title>Chat Client</title><rect fill="#FFFFFF" height="26.9336" style="stroke:#181818;stroke-width:0.9;" width="9" x="538.1235" y="842.6808"/></g><g class="message" data-entity-1="part1" data-entity-2="part1" id="msg1"><polygon fill="#181818" points="35.514,74.0061,44.514,77.6061,35.514,81.2061,39.114,77.6061" style="stroke:#181818;stroke-width:0.9;"/><line style="stroke:#181818;stroke-width:0.9;" x1="0" x2="40.914" y1="77.6061" y2="77.6061"/><text fill="#000000" font-family="sans-serif" font-size="11.7" lengthAdjust="spacing" textLength="24.714" x="6.3" y="73.2353">Data</text></g><g class="message" data-entity-1="part1" data-entity-2="part2" id="msg2"><polygon fill="#181818" points="111.1008,100.9397,120.1008,104.5397,111.1008,108.1397,114.7008,104.5397" style="stroke:#181818;stroke-width:0.9;"/><line style="stroke:#181818;stroke-width:0.9;" x1="46.314" x2="116.5008" y1="104.5397" y2="104.5397"/><text fill="#000000" font-family="sans-serif" font-size="11.7" lengthAdjust="spacing" textLength="53.9868" x="52.614" y="100.1689">Store data</text></g><g class="message" data-entity-1="part1" data-entity-2="part4" id="msg3"><polygon fill="#181818" points="262.8466,127.8734,271.8466,131.4734,262.8466,135.0734,266.4466,131.4734" style="stroke:#181818;stroke-width:0.9;"/><line style="stroke:#181818;stroke-width:0.9;" x1="46.314" x2="268.2466" y1="131.4734" y2="131.4734"/><text fill="#000000" font-family="sans-serif" font-size="11.7" lengthAdjust="spacing" textLength="80.6432" x="52.614" y="127.1026">Notify new data</text></g><g class="message" data-entity-1="part4" data-entity-2="part4" id="msg4"><line style="stroke:#181818;stroke-width:0.9;" x1="273.6466" x2="311.4466" y1="158.407" y2="158.407"/><line style="stroke:#181818;stroke-width:0.9;" x1="311.4466" x2="311.4466" y1="158.407" y2="170.107"/><line style="stroke:#181818;stroke-width:0.9;" x1="274.5466" x2="311.4466" y1="170.107" y2="170.107"/><polygon fill="#181818" points="283.5466,166.507,274.5466,170.107,283.5466,173.707,279.9466,170.107" style="stroke:#181818;stroke-width:0.9;"/><text fill="#000000" font-family="sans-serif" font-size="11.7" lengthAdjust="spacing" textLength="117.7198" x="279.9466" y="154.0362">Evaluate model quality</text></g><path d="M81.4939,183.607 L135.6478,183.607 L135.6478,190.7407 L126.6478,199.7407 L81.4939,199.7407 L81.4939,183.607" fill="#EEEEEE" style="stroke:#000000;stroke-width:1.35;"/><rect fill="none" height="607.8401" style="stroke:#000000;stroke-width:1.35;" width="632.99" x="81.4939" y="183.607"/><text fill="#000000" font-family="sans-serif" font-size="11.7" font-weight="bold" lengthAdjust="spacing" textLength="13.6538" x="94.9939" y="196.2699">alt</text><text fill="#000000" font-family="sans-serif" font-size="9.9" font-weight="bold" lengthAdjust="spacing" textLength="118.8048" x="149.1478" y="195.3602">[Quality below threshold]</text><g class="message" data-entity-1="part4" data-entity-2="part6" id="msg5"><polygon fill="#181818" points="531.8235,215.8743,540.8235,219.4743,531.8235,223.0743,535.4235,219.4743" style="stroke:#181818;stroke-width:0.9;"/><line style="stroke:#181818;stroke-width:0.9;" x1="273.6466" x2="537.2235" y1="219.4743" y2="219.4743"/><text fill="#000000" font-family="sans-serif" font-size="11.7" lengthAdjust="spacing" textLength="62.4362" x="279.9466" y="215.1035">Notify agent</text></g><path d="M90.4939,232.9743 L155.6851,232.9743 L155.6851,240.108 L146.6851,249.108 L90.4939,249.108 L90.4939,232.9743" fill="#EEEEEE" style="stroke:#000000;stroke-width:1.35;"/><rect fill="none" height="552.1729" style="stroke:#000000;stroke-width:1.35;" width="614.99" x="90.4939" y="232.9743"/><text fill="#000000" font-family="sans-serif" font-size="11.7" font-weight="bold" lengthAdjust="spacing" textLength="24.6911" x="103.9939" y="245.6372">loop</text><text fill="#000000" font-family="sans-serif" font-size="9.9" font-weight="bold" lengthAdjust="spacing" textLength="146.3005" x="169.1851" y="244.7275">[While quality below threshold]</text><g class="message" data-entity-1="part6" data-entity-2="part5" id="msg6"><polygon fill="#181818" points="418.3664,265.2416,409.3664,268.8416,418.3664,272.4416,414.7664,268.8416" style="stroke:#181818;stroke-width:0.9;"/><line style="stroke:#181818;stroke-width:0.9;" x1="412.9664" x2="541.7235" y1="268.8416" y2="268.8416"/><text fill="#000000" font-family="sans-serif" font-size="11.7" lengthAdjust="spacing" textLength="84.5451" x="423.7664" y="264.4708">Compute quality</text></g><g class="message" data-entity-1="part5" data-entity-2="part7" id="msg7"><polygon fill="#181818" points="654.1686,292.1752,663.1686,295.7752,654.1686,299.3752,657.7686,295.7752" style="stroke:#181818;stroke-width:0.9;"/><line style="stroke:#181818;stroke-width:0.9;" x1="408.4664" x2="659.5686" y1="295.7752" y2="295.7752"/><text fill="#000000" font-family="sans-serif" font-size="11.7" lengthAdjust="spacing" textLength="94.9368" x="414.7664" y="291.4044">Update (Tool Call)</text></g><g class="message" data-entity-1="part5" data-entity-2="part4" id="msg8"><polygon fill="#181818" points="288.0466,319.1089,279.0466,322.7089,288.0466,326.3089,284.4466,322.7089" style="stroke:#181818;stroke-width:0.9;"/><line style="stroke:#181818;stroke-width:0.9;" x1="282.6466" x2="398.5664" y1="322.7089" y2="322.7089"/><text fill="#000000" font-family="sans-serif" font-size="11.7" lengthAdjust="spacing" textLength="84.5451" x="293.4466" y="318.3381">Compute quality</text></g><g class="message" data-entity-1="part4" data-entity-2="part5" id="msg9"><polygon fill="#181818" points="388.6664,346.0425,397.6664,349.6425,388.6664,353.2425,392.2664,349.6425" style="stroke:#181818;stroke-width:0.9;"/><line style="stroke:#181818;stroke-width:0.9;stroke-dasharray:1.8,1.8;" x1="273.6466" x2="394.0664" y1="349.6425" y2="349.6425"/><text fill="#000000" font-family="sans-serif" font-size="11.7" lengthAdjust="spacing" textLength="36.414" x="279.9466" y="345.2717">Quality</text></g><g class="message" data-entity-1="part5" data-entity-2="part6" id="msg10"><polygon fill="#181818" points="531.8235,372.9762,540.8235,376.5762,531.8235,380.1762,535.4235,376.5762" style="stroke:#181818;stroke-width:0.9;"/><line style="stroke:#181818;stroke-width:0.9;stroke-dasharray:1.8,1.8;" x1="403.9664" x2="537.2235" y1="376.5762" y2="376.5762"/><text fill="#000000" font-family="sans-serif" font-size="11.7" lengthAdjust="spacing" textLength="36.414" x="410.2664" y="372.2054">Quality</text></g><g class="message" data-entity-1="part6" data-entity-2="part5" id="msg11"><polygon fill="#181818" points="418.3664,399.9098,409.3664,403.5098,418.3664,407.1098,414.7664,403.5098" style="stroke:#181818;stroke-width:0.9;"/><line style="stroke:#181818;stroke-width:0.9;" x1="412.9664" x2="541.7235" y1="403.5098" y2="403.5098"/><text fill="#000000" font-family="sans-serif" font-size="11.7" lengthAdjust="spacing" textLength="44.8805" x="423.7664" y="399.139">Get data</text></g><g class="message" data-entity-1="part5" data-entity-2="part7" id="msg12"><polygon fill="#181818" points="654.1686,426.8435,663.1686,430.4435,654.1686,434.0435,657.7686,430.4435" style="stroke:#181818;stroke-width:0.9;"/><line style="stroke:#181818;stroke-width:0.9;" x1="408.4664" x2="659.5686" y1="430.4435" y2="430.4435"/><text fill="#000000" font-family="sans-serif" font-size="11.7" lengthAdjust="spacing" textLength="94.9368" x="414.7664" y="426.0727">Update (Tool Call)</text></g><g class="message" data-entity-1="part5" data-entity-2="part2" id="msg13"><polygon fill="#181818" points="136.3008,453.7771,127.3008,457.3771,136.3008,460.9771,132.7008,457.3771" style="stroke:#181818;stroke-width:0.9;"/><line style="stroke:#181818;stroke-width:0.9;" x1="130.9008" x2="398.5664" y1="457.3771" y2="457.3771"/><text fill="#000000" font-family="sans-serif" font-size="11.7" lengthAdjust="spacing" textLength="44.8805" x="141.7008" y="453.0063">Get data</text></g><g class="message" data-entity-1="part2" data-entity-2="part5" id="msg14"><polygon fill="#181818" points="388.6664,480.7107,397.6664,484.3107,388.6664,487.9107,392.2664,484.3107" style="stroke:#181818;stroke-width:0.9;"/><line style="stroke:#181818;stroke-width:0.9;stroke-dasharray:1.8,1.8;" x1="121.9008" x2="394.0664" y1="484.3107" y2="484.3107"/><text fill="#000000" font-family="sans-serif" font-size="11.7" lengthAdjust="spacing" textLength="24.714" x="128.2008" y="479.9399">Data</text></g><g class="message" data-entity-1="part5" data-entity-2="part6" id="msg15"><polygon fill="#181818" points="531.8235,507.6444,540.8235,511.2444,531.8235,514.8444,535.4235,511.2444" style="stroke:#181818;stroke-width:0.9;"/><line style="stroke:#181818;stroke-width:0.9;stroke-dasharray:1.8,1.8;" x1="403.9664" x2="537.2235" y1="511.2444" y2="511.2444"/><text fill="#000000" font-family="sans-serif" font-size="11.7" lengthAdjust="spacing" textLength="24.714" x="410.2664" y="506.8736">Data</text></g><g class="message" data-entity-1="part6" data-entity-2="part5" id="msg16"><polygon fill="#181818" points="418.3664,534.578,409.3664,538.178,418.3664,541.778,414.7664,538.178" style="stroke:#181818;stroke-width:0.9;"/><line style="stroke:#181818;stroke-width:0.9;" x1="412.9664" x2="541.7235" y1="538.178" y2="538.178"/><text fill="#000000" font-family="sans-serif" font-size="11.7" lengthAdjust="spacing" textLength="117.0571" x="423.7664" y="533.8072">Retrain residual model</text></g><g class="message" data-entity-1="part5" data-entity-2="part7" id="msg17"><polygon fill="#181818" points="654.1686,561.5117,663.1686,565.1117,654.1686,568.7117,657.7686,565.1117" style="stroke:#181818;stroke-width:0.9;"/><line style="stroke:#181818;stroke-width:0.9;" x1="408.4664" x2="659.5686" y1="565.1117" y2="565.1117"/><text fill="#000000" font-family="sans-serif" font-size="11.7" lengthAdjust="spacing" textLength="94.9368" x="414.7664" y="560.7409">Update (Tool Call)</text></g><g class="message" data-entity-1="part5" data-entity-2="part2" id="msg18"><polygon fill="#181818" points="136.3008,588.4453,127.3008,592.0453,136.3008,595.6453,132.7008,592.0453" style="stroke:#181818;stroke-width:0.9;"/><line style="stroke:#181818;stroke-width:0.9;" x1="130.9008" x2="398.5664" y1="592.0453" y2="592.0453"/><text fill="#000000" font-family="sans-serif" font-size="11.7" lengthAdjust="spacing" textLength="44.8805" x="141.7008" y="587.6745">Get data</text></g><g class="message" data-entity-1="part2" data-entity-2="part5" id="msg19"><polygon fill="#181818" points="388.6664,615.379,397.6664,618.979,388.6664,622.579,392.2664,618.979" style="stroke:#181818;stroke-width:0.9;"/><line style="stroke:#181818;stroke-width:0.9;stroke-dasharray:1.8,1.8;" x1="121.9008" x2="394.0664" y1="618.979" y2="618.979"/><text fill="#000000" font-family="sans-serif" font-size="11.7" lengthAdjust="spacing" textLength="24.714" x="128.2008" y="614.6082">Data</text></g><g class="message" data-entity-1="part5" data-entity-2="part5" id="msg20"><line style="stroke:#181818;stroke-width:0.9;" x1="408.4664" x2="446.2664" y1="645.9126" y2="645.9126"/><line style="stroke:#181818;stroke-width:0.9;" x1="446.2664" x2="446.2664" y1="645.9126" y2="657.6126"/><line style="stroke:#181818;stroke-width:0.9;" x1="409.3664" x2="446.2664" y1="657.6126" y2="657.6126"/><polygon fill="#181818" points="418.3664,654.0126,409.3664,657.6126,418.3664,661.2126,414.7664,657.6126" style="stroke:#181818;stroke-width:0.9;"/><text fill="#000000" font-family="sans-serif" font-size="11.7" lengthAdjust="spacing" textLength="98.8501" x="414.7664" y="641.5418">Calculate residuals</text></g><g class="message" data-entity-1="part5" data-entity-2="part3" id="msg21"><polygon fill="#181818" points="206.9196,680.9462,197.9196,684.5462,206.9196,688.1462,203.3196,684.5462" style="stroke:#181818;stroke-width:0.9;"/><line style="stroke:#181818;stroke-width:0.9;" x1="201.5196" x2="398.5664" y1="684.5462" y2="684.5462"/><text fill="#000000" font-family="sans-serif" font-size="11.7" lengthAdjust="spacing" textLength="128.1001" x="212.3196" y="680.1754">Run symbolic regression</text></g><g class="message" data-entity-1="part3" data-entity-2="part5" id="msg22"><polygon fill="#181818" points="388.6664,707.8799,397.6664,711.4799,388.6664,715.0799,392.2664,711.4799" style="stroke:#181818;stroke-width:0.9;"/><line style="stroke:#181818;stroke-width:0.9;stroke-dasharray:1.8,1.8;" x1="192.5196" x2="394.0664" y1="711.4799" y2="711.4799"/><text fill="#000000" font-family="sans-serif" font-size="11.7" lengthAdjust="spacing" textLength="31.8665" x="198.8196" y="707.1091">Model</text></g><g class="message" data-entity-1="part5" data-entity-2="part2" id="msg23"><polygon fill="#181818" points="131.8008,734.8135,122.8008,738.4135,131.8008,742.0135,128.2008,738.4135" style="stroke:#181818;stroke-width:0.9;"/><line style="stroke:#181818;stroke-width:0.9;" x1="126.4008" x2="398.5664" y1="738.4135" y2="738.4135"/><text fill="#000000" font-family="sans-serif" font-size="11.7" lengthAdjust="spacing" textLength="63.0817" x="137.2008" y="734.0427">Store model</text></g><g class="message" data-entity-1="part5" data-entity-2="part6" id="msg24"><polygon fill="#181818" points="531.8235,747.4135,540.8235,751.0135,531.8235,754.6135,535.4235,751.0135" style="stroke:#181818;stroke-width:0.9;"/><line style="stroke:#181818;stroke-width:0.9;stroke-dasharray:1.8,1.8;" x1="403.9664" x2="537.2235" y1="751.0135" y2="751.0135"/></g><g class="message" data-entity-1="part6" data-entity-2="part7" id="msg25"><polygon fill="#181818" points="654.1686,774.3472,663.1686,777.9472,654.1686,781.5472,657.7686,777.9472" style="stroke:#181818;stroke-width:0.9;"/><line style="stroke:#181818;stroke-width:0.9;" x1="542.6235" x2="659.5686" y1="777.9472" y2="777.9472"/><text fill="#000000" font-family="sans-serif" font-size="11.7" lengthAdjust="spacing" textLength="96.2451" x="548.9235" y="773.5764">Update (Message)</text></g><g class="message" data-entity-1="part7" data-entity-2="part6" id="msg26"><polygon fill="#181818" points="557.0235,839.0808,548.0235,842.6808,557.0235,846.2808,553.4235,842.6808" style="stroke:#181818;stroke-width:0.9;"/><line style="stroke:#181818;stroke-width:0.9;" x1="551.6235" x2="664.0686" y1="842.6808" y2="842.6808"/><text fill="#000000" font-family="sans-serif" font-size="11.7" lengthAdjust="spacing" textLength="53.3241" x="562.4235" y="838.31">User input</text></g><g class="message" data-entity-1="part6" data-entity-2="part7" id="msg27"><polygon fill="#181818" points="654.1686,866.0145,663.1686,869.6145,654.1686,873.2145,657.7686,869.6145" style="stroke:#181818;stroke-width:0.9;"/><line style="stroke:#181818;stroke-width:0.9;" x1="542.6235" x2="659.5686" y1="869.6145" y2="869.6145"/><text fill="#000000" font-family="sans-serif" font-size="11.7" lengthAdjust="spacing" textLength="96.2451" x="548.9235" y="865.2437">Update (Message)</text></g><?plantuml-src pPInKkCm48PxFSKE5HIN1t315URWYfWv80oD6yLUY6PaIKZhPFBsjxBin3O9TmK5hgprjwlzVqlhf2TLAISDmKNni5gL9jSA3Ls03D2y4wMbS6Fm4MiL9gIFaIdq6rkl0g-NQbsQ5o-TGz_1k_G-nGjReoxDhwtKhIIRIEJL3Cl_bEO9_RQlrLHk2kGRIP0wAytbSbbSTLp5uLDIRhqrXARkeDT-8SJF7zSZzHdSI99272F0tplD6JnnimZr2I1sdy6z9VMw1uEx7ehXu-TUC48J3O3tLcf5Uo6a9dX82rYZjZkWZSUmiReMmCzGvIZii9LyYp8xIblhu6MZD0wLJnQBpx5GBCk-Pf3RnhLqI3sWiYArxNfczuSWlyV4mSCCdbqTcSkLjHfogVNLd4qE_7ENxXGCKO_KUZDOSoxycQexfFGdlbfEVo3Erq-tPDRopHWTnpxJy8ZafJBC1rMpvdHwlgEYlb8wJr9NhKvvgUymv_hPm0fR0s7VhArM5UDld16KDHzR6AR9h8bYOiXKJxgoKyjIsZdJFvfMS3zyqP9bSMPqSsEnM0WnmFFh-HpGWp9ysCMX-z5S-kyTQpoL_XS0?></g></svg>